<svg width="500" height="460" viewBox="0 0 500 460" fill="none" xmlns="http://www.w3.org/2000/svg">
<g clip-path="url(#clip0_1_124)">
<path fill-rule="evenodd" clip-rule="evenodd" d="M213.703 367.034C199.946 367.176 186.385 368.759 173.02 371.782C157.819 375.221 148.121 387.103 150.307 399.616C152.757 413.655 165.992 424.94 183.353 427.797C190.068 428.902 197.697 429.886 206.244 430.75C245.072 434.675 278.459 432.271 298.179 432.271C317.899 432.271 315.213 431.53 337.264 430.75C359.314 429.971 349.809 430.485 381.467 429.328C393.085 428.903 404.701 428.459 416.316 427.995C417.543 427.947 418.765 427.835 419.975 427.661C436.517 429.489 458.697 435.575 454.476 431.774C451.422 429.023 446.734 423.537 440.413 415.315C442.535 411.868 443.523 408.046 443.285 404.209L442.422 389.792C441.718 378.048 429.931 368.671 415.243 368.174C392.9 367.414 373.368 367.034 356.644 367.034C322.281 367.034 325.193 369.172 288.048 369.172C250.903 369.172 247.955 366.681 213.703 367.034Z" fill="#F1F6D2"/>
<path d="M210.327 380.592H206.214V392H204.535V380.592H200.431V379.203H210.327V380.592ZM214.157 383.642C214.877 382.757 215.815 382.314 216.969 382.314C218.979 382.314 219.993 383.448 220.01 385.716V392H218.384V385.707C218.378 385.021 218.22 384.515 217.91 384.187C217.605 383.858 217.127 383.694 216.477 383.694C215.95 383.694 215.487 383.835 215.088 384.116C214.69 384.397 214.379 384.767 214.157 385.224V392H212.531V378.5H214.157V383.642ZM224.771 392H223.145V382.49H224.771V392ZM223.014 379.968C223.014 379.704 223.093 379.481 223.251 379.3C223.415 379.118 223.655 379.027 223.972 379.027C224.288 379.027 224.528 379.118 224.692 379.3C224.856 379.481 224.938 379.704 224.938 379.968C224.938 380.231 224.856 380.451 224.692 380.627C224.528 380.803 224.288 380.891 223.972 380.891C223.655 380.891 223.415 380.803 223.251 380.627C223.093 380.451 223.014 380.231 223.014 379.968ZM233.479 389.478C233.479 389.038 233.312 388.698 232.978 388.458C232.65 388.212 232.073 388.001 231.246 387.825C230.426 387.649 229.773 387.438 229.286 387.192C228.806 386.946 228.449 386.653 228.214 386.313C227.986 385.974 227.871 385.569 227.871 385.101C227.871 384.321 228.2 383.662 228.856 383.123C229.518 382.584 230.362 382.314 231.387 382.314C232.465 382.314 233.338 382.593 234.006 383.149C234.68 383.706 235.017 384.418 235.017 385.285H233.382C233.382 384.84 233.192 384.456 232.811 384.134C232.436 383.812 231.961 383.65 231.387 383.65C230.795 383.65 230.332 383.779 229.998 384.037C229.664 384.295 229.497 384.632 229.497 385.048C229.497 385.44 229.653 385.736 229.963 385.936C230.274 386.135 230.833 386.325 231.642 386.507C232.456 386.688 233.116 386.905 233.619 387.157C234.123 387.409 234.495 387.714 234.736 388.071C234.982 388.423 235.105 388.854 235.105 389.363C235.105 390.213 234.765 390.896 234.085 391.411C233.406 391.921 232.524 392.176 231.44 392.176C230.678 392.176 230.004 392.041 229.418 391.771C228.832 391.502 228.372 391.127 228.038 390.646C227.71 390.16 227.546 389.636 227.546 389.073H229.172C229.201 389.618 229.418 390.052 229.823 390.374C230.233 390.69 230.772 390.849 231.44 390.849C232.055 390.849 232.547 390.726 232.916 390.479C233.291 390.228 233.479 389.894 233.479 389.478ZM248.679 392C248.585 391.812 248.509 391.479 248.45 390.998C247.695 391.783 246.792 392.176 245.743 392.176C244.806 392.176 244.035 391.912 243.432 391.385C242.834 390.852 242.535 390.178 242.535 389.363C242.535 388.373 242.91 387.605 243.66 387.061C244.416 386.51 245.477 386.234 246.842 386.234H248.424V385.487C248.424 384.919 248.254 384.468 247.914 384.134C247.574 383.794 247.073 383.624 246.411 383.624C245.831 383.624 245.345 383.771 244.952 384.063C244.56 384.356 244.363 384.711 244.363 385.127H242.729C242.729 384.652 242.896 384.195 243.23 383.756C243.57 383.311 244.027 382.959 244.601 382.701C245.181 382.443 245.817 382.314 246.508 382.314C247.604 382.314 248.462 382.59 249.083 383.141C249.704 383.686 250.027 384.438 250.05 385.399V389.776C250.05 390.649 250.161 391.344 250.384 391.859V392H248.679ZM245.981 390.761C246.49 390.761 246.974 390.629 247.431 390.365C247.888 390.102 248.219 389.759 248.424 389.337V387.386H247.15C245.157 387.386 244.161 387.969 244.161 389.135C244.161 389.645 244.331 390.043 244.671 390.33C245.011 390.617 245.447 390.761 245.981 390.761ZM256.973 390.849C257.553 390.849 258.06 390.673 258.494 390.321C258.927 389.97 259.168 389.53 259.214 389.003H260.753C260.723 389.548 260.536 390.066 260.19 390.559C259.844 391.051 259.381 391.443 258.801 391.736C258.227 392.029 257.618 392.176 256.973 392.176C255.678 392.176 254.647 391.745 253.88 390.884C253.118 390.017 252.737 388.833 252.737 387.333V387.061C252.737 386.135 252.907 385.312 253.247 384.591C253.587 383.87 254.073 383.311 254.706 382.912C255.344 382.514 256.097 382.314 256.964 382.314C258.031 382.314 258.916 382.634 259.619 383.272C260.328 383.911 260.706 384.74 260.753 385.76H259.214C259.168 385.145 258.933 384.641 258.511 384.248C258.095 383.85 257.58 383.65 256.964 383.65C256.138 383.65 255.497 383.949 255.04 384.547C254.589 385.139 254.363 385.997 254.363 387.122V387.43C254.363 388.525 254.589 389.369 255.04 389.961C255.491 390.553 256.135 390.849 256.973 390.849ZM264.679 382.49L264.732 383.686C265.458 382.771 266.407 382.314 267.579 382.314C269.589 382.314 270.603 383.448 270.62 385.716V392H268.994V385.707C268.988 385.021 268.83 384.515 268.52 384.187C268.215 383.858 267.737 383.694 267.087 383.694C266.56 383.694 266.097 383.835 265.698 384.116C265.3 384.397 264.989 384.767 264.767 385.224V392H263.141V382.49H264.679ZM277.579 392.176C276.29 392.176 275.241 391.754 274.432 390.91C273.624 390.061 273.219 388.927 273.219 387.509V387.21C273.219 386.267 273.398 385.426 273.755 384.688C274.119 383.943 274.623 383.363 275.267 382.947C275.918 382.525 276.621 382.314 277.376 382.314C278.613 382.314 279.574 382.722 280.259 383.536C280.945 384.351 281.288 385.517 281.288 387.034V387.711H274.845C274.869 388.648 275.141 389.407 275.663 389.987C276.19 390.562 276.858 390.849 277.667 390.849C278.241 390.849 278.727 390.731 279.126 390.497C279.524 390.263 279.873 389.952 280.171 389.565L281.165 390.339C280.368 391.563 279.172 392.176 277.579 392.176ZM277.376 383.65C276.72 383.65 276.169 383.891 275.724 384.371C275.279 384.846 275.003 385.514 274.898 386.375H279.662V386.252C279.615 385.426 279.392 384.787 278.994 384.336C278.595 383.879 278.056 383.65 277.376 383.65ZM290.291 382.49L290.335 383.545C291.033 382.725 291.973 382.314 293.157 382.314C294.487 382.314 295.392 382.824 295.872 383.844C296.189 383.387 296.599 383.018 297.103 382.736C297.613 382.455 298.213 382.314 298.905 382.314C300.991 382.314 302.051 383.419 302.086 385.628V392H300.46V385.725C300.46 385.045 300.305 384.538 299.995 384.204C299.684 383.864 299.162 383.694 298.43 383.694C297.827 383.694 297.326 383.876 296.927 384.239C296.529 384.597 296.297 385.08 296.233 385.689V392H294.598V385.769C294.598 384.386 293.921 383.694 292.568 383.694C291.501 383.694 290.772 384.148 290.379 385.057V392H288.753V382.49H290.291ZM309.054 392.176C307.764 392.176 306.716 391.754 305.907 390.91C305.098 390.061 304.694 388.927 304.694 387.509V387.21C304.694 386.267 304.873 385.426 305.23 384.688C305.594 383.943 306.098 383.363 306.742 382.947C307.392 382.525 308.096 382.314 308.851 382.314C310.088 382.314 311.049 382.722 311.734 383.536C312.42 384.351 312.763 385.517 312.763 387.034V387.711H306.32C306.344 388.648 306.616 389.407 307.138 389.987C307.665 390.562 308.333 390.849 309.141 390.849C309.716 390.849 310.202 390.731 310.6 390.497C310.999 390.263 311.348 389.952 311.646 389.565L312.639 390.339C311.843 391.563 310.647 392.176 309.054 392.176ZM308.851 383.65C308.195 383.65 307.644 383.891 307.199 384.371C306.754 384.846 306.478 385.514 306.373 386.375H311.137V386.252C311.09 385.426 310.867 384.787 310.469 384.336C310.07 383.879 309.531 383.65 308.851 383.65ZM314.817 387.166C314.817 385.707 315.162 384.535 315.854 383.65C316.545 382.76 317.45 382.314 318.57 382.314C319.683 382.314 320.565 382.695 321.215 383.457V378.5H322.841V392H321.347L321.268 390.98C320.617 391.777 319.712 392.176 318.552 392.176C317.45 392.176 316.551 391.725 315.854 390.822C315.162 389.92 314.817 388.742 314.817 387.289V387.166ZM316.443 387.351C316.443 388.429 316.665 389.272 317.111 389.882C317.556 390.491 318.171 390.796 318.956 390.796C319.988 390.796 320.741 390.333 321.215 389.407V385.039C320.729 384.143 319.982 383.694 318.974 383.694C318.177 383.694 317.556 384.002 317.111 384.617C316.665 385.232 316.443 386.144 316.443 387.351ZM327.699 392H326.073V382.49H327.699V392ZM325.941 379.968C325.941 379.704 326.02 379.481 326.178 379.3C326.342 379.118 326.583 379.027 326.899 379.027C327.216 379.027 327.456 379.118 327.62 379.3C327.784 379.481 327.866 379.704 327.866 379.968C327.866 380.231 327.784 380.451 327.62 380.627C327.456 380.803 327.216 380.891 326.899 380.891C326.583 380.891 326.342 380.803 326.178 380.627C326.02 380.451 325.941 380.231 325.941 379.968ZM334.684 390.849C335.264 390.849 335.771 390.673 336.204 390.321C336.638 389.97 336.878 389.53 336.925 389.003H338.463C338.434 389.548 338.246 390.066 337.901 390.559C337.555 391.051 337.092 391.443 336.512 391.736C335.938 392.029 335.328 392.176 334.684 392.176C333.389 392.176 332.358 391.745 331.59 390.884C330.828 390.017 330.447 388.833 330.447 387.333V387.061C330.447 386.135 330.617 385.312 330.957 384.591C331.297 383.87 331.783 383.311 332.416 382.912C333.055 382.514 333.808 382.314 334.675 382.314C335.741 382.314 336.626 382.634 337.329 383.272C338.038 383.911 338.416 384.74 338.463 385.76H336.925C336.878 385.145 336.644 384.641 336.222 384.248C335.806 383.85 335.29 383.65 334.675 383.65C333.849 383.65 333.207 383.949 332.75 384.547C332.299 385.139 332.073 385.997 332.073 387.122V387.43C332.073 388.525 332.299 389.369 332.75 389.961C333.201 390.553 333.846 390.849 334.684 390.849ZM342.618 392H340.992V382.49H342.618V392ZM340.86 379.968C340.86 379.704 340.939 379.481 341.097 379.3C341.261 379.118 341.502 379.027 341.818 379.027C342.134 379.027 342.375 379.118 342.539 379.3C342.703 379.481 342.785 379.704 342.785 379.968C342.785 380.231 342.703 380.451 342.539 380.627C342.375 380.803 342.134 380.891 341.818 380.891C341.502 380.891 341.261 380.803 341.097 380.627C340.939 380.451 340.86 380.231 340.86 379.968ZM347.326 382.49L347.379 383.686C348.106 382.771 349.055 382.314 350.227 382.314C352.236 382.314 353.25 383.448 353.268 385.716V392H351.642V385.707C351.636 385.021 351.478 384.515 351.167 384.187C350.862 383.858 350.385 383.694 349.734 383.694C349.207 383.694 348.744 383.835 348.346 384.116C347.947 384.397 347.637 384.767 347.414 385.224V392H345.788V382.49H347.326ZM360.226 392.176C358.937 392.176 357.888 391.754 357.08 390.91C356.271 390.061 355.867 388.927 355.867 387.509V387.21C355.867 386.267 356.045 385.426 356.403 384.688C356.766 383.943 357.27 383.363 357.915 382.947C358.565 382.525 359.268 382.314 360.024 382.314C361.26 382.314 362.221 382.722 362.907 383.536C363.592 384.351 363.935 385.517 363.935 387.034V387.711H357.493C357.516 388.648 357.789 389.407 358.31 389.987C358.837 390.562 359.505 390.849 360.314 390.849C360.888 390.849 361.374 390.731 361.773 390.497C362.171 390.263 362.52 389.952 362.819 389.565L363.812 390.339C363.015 391.563 361.82 392.176 360.226 392.176ZM360.024 383.65C359.368 383.65 358.817 383.891 358.372 384.371C357.926 384.846 357.651 385.514 357.545 386.375H362.309V386.252C362.262 385.426 362.04 384.787 361.641 384.336C361.243 383.879 360.704 383.65 360.024 383.65ZM373.176 392H371.55V382.49H373.176V392ZM371.418 379.968C371.418 379.704 371.497 379.481 371.656 379.3C371.82 379.118 372.06 379.027 372.376 379.027C372.693 379.027 372.933 379.118 373.097 379.3C373.261 379.481 373.343 379.704 373.343 379.968C373.343 380.231 373.261 380.451 373.097 380.627C372.933 380.803 372.693 380.891 372.376 380.891C372.06 380.891 371.82 380.803 371.656 380.627C371.497 380.451 371.418 380.231 371.418 379.968ZM381.884 389.478C381.884 389.038 381.717 388.698 381.383 388.458C381.054 388.212 380.477 388.001 379.651 387.825C378.831 387.649 378.178 387.438 377.691 387.192C377.211 386.946 376.853 386.653 376.619 386.313C376.39 385.974 376.276 385.569 376.276 385.101C376.276 384.321 376.604 383.662 377.261 383.123C377.923 382.584 378.766 382.314 379.792 382.314C380.87 382.314 381.743 382.593 382.411 383.149C383.085 383.706 383.422 384.418 383.422 385.285H381.787C381.787 384.84 381.596 384.456 381.216 384.134C380.841 383.812 380.366 383.65 379.792 383.65C379.2 383.65 378.737 383.779 378.403 384.037C378.069 384.295 377.902 384.632 377.902 385.048C377.902 385.44 378.057 385.736 378.368 385.936C378.679 386.135 379.238 386.325 380.047 386.507C380.861 386.688 381.52 386.905 382.024 387.157C382.528 387.409 382.9 387.714 383.14 388.071C383.387 388.423 383.51 388.854 383.51 389.363C383.51 390.213 383.17 390.896 382.49 391.411C381.81 391.921 380.929 392.176 379.845 392.176C379.083 392.176 378.409 392.041 377.823 391.771C377.237 391.502 376.777 391.127 376.443 390.646C376.115 390.16 375.951 389.636 375.951 389.073H377.577C377.606 389.618 377.823 390.052 378.227 390.374C378.637 390.69 379.177 390.849 379.845 390.849C380.46 390.849 380.952 390.726 381.321 390.479C381.696 390.228 381.884 389.894 381.884 389.478ZM207.102 414.06C206.469 414.804 205.54 415.176 204.315 415.176C203.302 415.176 202.528 414.883 201.995 414.297C201.468 413.705 201.201 412.832 201.195 411.678V405.49H202.821V411.634C202.821 413.075 203.407 413.796 204.579 413.796C205.821 413.796 206.647 413.333 207.058 412.407V405.49H208.684V415H207.137L207.102 414.06ZM219.755 410.351C219.755 411.798 219.424 412.964 218.762 413.849C218.1 414.733 217.204 415.176 216.073 415.176C214.918 415.176 214.01 414.81 213.348 414.077V418.656H211.722V405.49H213.207L213.287 406.545C213.949 405.725 214.869 405.314 216.046 405.314C217.189 405.314 218.091 405.745 218.753 406.606C219.421 407.468 219.755 408.666 219.755 410.201V410.351ZM218.129 410.166C218.129 409.094 217.901 408.247 217.444 407.626C216.987 407.005 216.36 406.694 215.563 406.694C214.579 406.694 213.84 407.131 213.348 408.004V412.548C213.834 413.415 214.579 413.849 215.581 413.849C216.36 413.849 216.978 413.541 217.435 412.926C217.898 412.305 218.129 411.385 218.129 410.166ZM227.927 412.478C227.927 412.038 227.76 411.698 227.426 411.458C227.098 411.212 226.52 411.001 225.694 410.825C224.874 410.649 224.221 410.438 223.734 410.192C223.254 409.946 222.896 409.653 222.662 409.313C222.433 408.974 222.319 408.569 222.319 408.101C222.319 407.321 222.647 406.662 223.304 406.123C223.966 405.584 224.809 405.314 225.835 405.314C226.913 405.314 227.786 405.593 228.454 406.149C229.128 406.706 229.465 407.418 229.465 408.285H227.83C227.83 407.84 227.64 407.456 227.259 407.134C226.884 406.812 226.409 406.65 225.835 406.65C225.243 406.65 224.78 406.779 224.446 407.037C224.112 407.295 223.945 407.632 223.945 408.048C223.945 408.44 224.1 408.736 224.411 408.936C224.722 409.135 225.281 409.325 226.09 409.507C226.904 409.688 227.563 409.905 228.067 410.157C228.571 410.409 228.943 410.714 229.183 411.071C229.43 411.423 229.553 411.854 229.553 412.363C229.553 413.213 229.213 413.896 228.533 414.411C227.853 414.921 226.972 415.176 225.888 415.176C225.126 415.176 224.452 415.041 223.866 414.771C223.28 414.502 222.82 414.127 222.486 413.646C222.158 413.16 221.994 412.636 221.994 412.073H223.62C223.649 412.618 223.866 413.052 224.27 413.374C224.681 413.69 225.22 413.849 225.888 413.849C226.503 413.849 226.995 413.726 227.364 413.479C227.739 413.228 227.927 412.894 227.927 412.478ZM236.177 415.176C234.888 415.176 233.839 414.754 233.031 413.91C232.222 413.061 231.818 411.927 231.818 410.509V410.21C231.818 409.267 231.996 408.426 232.354 407.688C232.717 406.943 233.221 406.363 233.866 405.947C234.516 405.525 235.219 405.314 235.975 405.314C237.211 405.314 238.172 405.722 238.858 406.536C239.543 407.351 239.886 408.517 239.886 410.034V410.711H233.444C233.467 411.648 233.74 412.407 234.261 412.987C234.788 413.562 235.456 413.849 236.265 413.849C236.839 413.849 237.326 413.731 237.724 413.497C238.122 413.263 238.471 412.952 238.77 412.565L239.763 413.339C238.966 414.563 237.771 415.176 236.177 415.176ZM235.975 406.65C235.319 406.65 234.768 406.891 234.323 407.371C233.877 407.846 233.602 408.514 233.496 409.375H238.26V409.252C238.213 408.426 237.991 407.787 237.592 407.336C237.194 406.879 236.655 406.65 235.975 406.65ZM244.542 403.188V405.49H246.317V406.747H244.542V412.645C244.542 413.025 244.621 413.312 244.779 413.506C244.937 413.693 245.207 413.787 245.588 413.787C245.775 413.787 246.033 413.752 246.361 413.682V415C245.933 415.117 245.517 415.176 245.113 415.176C244.386 415.176 243.839 414.956 243.469 414.517C243.1 414.077 242.916 413.453 242.916 412.645V406.747H241.184V405.49H242.916V403.188H244.542ZM250.99 403.188V405.49H252.766V406.747H250.99V412.645C250.99 413.025 251.07 413.312 251.228 413.506C251.386 413.693 251.655 413.787 252.036 413.787C252.224 413.787 252.482 413.752 252.81 413.682V415C252.382 415.117 251.966 415.176 251.562 415.176C250.835 415.176 250.287 414.956 249.918 414.517C249.549 414.077 249.364 413.453 249.364 412.645V406.747H247.633V405.49H249.364V403.188H250.99ZM257 415H255.374V405.49H257V415ZM255.242 402.968C255.242 402.704 255.321 402.481 255.479 402.3C255.643 402.118 255.883 402.027 256.2 402.027C256.516 402.027 256.756 402.118 256.921 402.3C257.085 402.481 257.167 402.704 257.167 402.968C257.167 403.231 257.085 403.451 256.921 403.627C256.756 403.803 256.516 403.891 256.2 403.891C255.883 403.891 255.643 403.803 255.479 403.627C255.321 403.451 255.242 403.231 255.242 402.968ZM261.708 405.49L261.761 406.686C262.487 405.771 263.437 405.314 264.608 405.314C266.618 405.314 267.632 406.448 267.649 408.716V415H266.024V408.707C266.018 408.021 265.859 407.515 265.549 407.187C265.244 406.858 264.767 406.694 264.116 406.694C263.589 406.694 263.126 406.835 262.728 407.116C262.329 407.397 262.019 407.767 261.796 408.224V415H260.17V405.49H261.708ZM270.275 410.166C270.275 408.684 270.618 407.506 271.303 406.633C271.989 405.754 272.897 405.314 274.028 405.314C275.188 405.314 276.093 405.725 276.744 406.545L276.823 405.49H278.308V414.771C278.308 416.002 277.942 416.972 277.209 417.681C276.483 418.39 275.504 418.744 274.274 418.744C273.588 418.744 272.918 418.598 272.261 418.305C271.605 418.012 271.104 417.61 270.758 417.101L271.602 416.125C272.299 416.986 273.152 417.417 274.16 417.417C274.951 417.417 275.566 417.194 276.005 416.749C276.451 416.304 276.673 415.677 276.673 414.868V414.051C276.023 414.801 275.135 415.176 274.01 415.176C272.897 415.176 271.995 414.728 271.303 413.831C270.618 412.935 270.275 411.713 270.275 410.166ZM271.91 410.351C271.91 411.423 272.129 412.267 272.569 412.882C273.008 413.491 273.624 413.796 274.415 413.796C275.44 413.796 276.193 413.33 276.673 412.398V408.057C276.175 407.148 275.428 406.694 274.432 406.694C273.641 406.694 273.023 407.002 272.578 407.617C272.132 408.232 271.91 409.144 271.91 410.351ZM287.883 405.49L287.927 406.545C288.624 405.725 289.565 405.314 290.748 405.314C292.079 405.314 292.984 405.824 293.464 406.844C293.781 406.387 294.191 406.018 294.695 405.736C295.204 405.455 295.805 405.314 296.496 405.314C298.582 405.314 299.643 406.419 299.678 408.628V415H298.052V408.725C298.052 408.045 297.897 407.538 297.586 407.204C297.276 406.864 296.754 406.694 296.022 406.694C295.418 406.694 294.917 406.876 294.519 407.239C294.121 407.597 293.889 408.08 293.825 408.689V415H292.19V408.769C292.19 407.386 291.513 406.694 290.16 406.694C289.093 406.694 288.364 407.148 287.971 408.057V415H286.345V405.49H287.883ZM305.81 412.618L308.025 405.49H309.765L305.942 416.468C305.35 418.05 304.41 418.841 303.121 418.841L302.813 418.814L302.207 418.7V417.382L302.646 417.417C303.197 417.417 303.625 417.306 303.93 417.083C304.24 416.86 304.495 416.453 304.694 415.861L305.055 414.895L301.662 405.49H303.437L305.81 412.618ZM322.346 412.478C322.346 412.038 322.179 411.698 321.845 411.458C321.517 411.212 320.94 411.001 320.114 410.825C319.294 410.649 318.64 410.438 318.154 410.192C317.674 409.946 317.316 409.653 317.082 409.313C316.853 408.974 316.739 408.569 316.739 408.101C316.739 407.321 317.067 406.662 317.723 406.123C318.385 405.584 319.229 405.314 320.255 405.314C321.333 405.314 322.206 405.593 322.874 406.149C323.548 406.706 323.884 407.418 323.884 408.285H322.25C322.25 407.84 322.059 407.456 321.678 407.134C321.303 406.812 320.829 406.65 320.255 406.65C319.663 406.65 319.2 406.779 318.866 407.037C318.532 407.295 318.365 407.632 318.365 408.048C318.365 408.44 318.52 408.736 318.831 408.936C319.141 409.135 319.701 409.325 320.509 409.507C321.324 409.688 321.983 409.905 322.487 410.157C322.991 410.409 323.363 410.714 323.603 411.071C323.849 411.423 323.972 411.854 323.972 412.363C323.972 413.213 323.633 413.896 322.953 414.411C322.273 414.921 321.391 415.176 320.307 415.176C319.546 415.176 318.872 415.041 318.286 414.771C317.7 414.502 317.24 414.127 316.906 413.646C316.578 413.16 316.414 412.636 316.414 412.073H318.04C318.069 412.618 318.286 413.052 318.69 413.374C319.1 413.69 319.639 413.849 320.307 413.849C320.923 413.849 321.415 413.726 321.784 413.479C322.159 413.228 322.346 412.894 322.346 412.478ZM328.857 403.188V405.49H330.632V406.747H328.857V412.645C328.857 413.025 328.936 413.312 329.094 413.506C329.252 413.693 329.522 413.787 329.902 413.787C330.09 413.787 330.348 413.752 330.676 413.682V415C330.248 415.117 329.832 415.176 329.428 415.176C328.701 415.176 328.153 414.956 327.784 414.517C327.415 414.077 327.231 413.453 327.231 412.645V406.747H325.499V405.49H327.231V403.188H328.857ZM332.493 410.157C332.493 409.226 332.674 408.388 333.038 407.644C333.407 406.899 333.917 406.325 334.567 405.921C335.223 405.517 335.97 405.314 336.808 405.314C338.103 405.314 339.149 405.763 339.946 406.659C340.749 407.556 341.15 408.748 341.15 410.236V410.351C341.15 411.276 340.971 412.108 340.614 412.847C340.262 413.579 339.755 414.15 339.093 414.561C338.437 414.971 337.681 415.176 336.826 415.176C335.537 415.176 334.491 414.728 333.688 413.831C332.891 412.935 332.493 411.748 332.493 410.271V410.157ZM334.128 410.351C334.128 411.405 334.371 412.252 334.857 412.891C335.349 413.529 336.005 413.849 336.826 413.849C337.652 413.849 338.308 413.526 338.795 412.882C339.281 412.231 339.524 411.323 339.524 410.157C339.524 409.114 339.275 408.271 338.777 407.626C338.285 406.976 337.629 406.65 336.808 406.65C336.005 406.65 335.358 406.97 334.866 407.608C334.374 408.247 334.128 409.161 334.128 410.351ZM345.278 405.49L345.322 406.545C346.02 405.725 346.96 405.314 348.144 405.314C349.474 405.314 350.379 405.824 350.859 406.844C351.176 406.387 351.586 406.018 352.09 405.736C352.6 405.455 353.2 405.314 353.892 405.314C355.978 405.314 357.038 406.419 357.073 408.628V415H355.447V408.725C355.447 408.045 355.292 407.538 354.981 407.204C354.671 406.864 354.149 406.694 353.417 406.694C352.814 406.694 352.313 406.876 351.914 407.239C351.516 407.597 351.284 408.08 351.22 408.689V415H349.585V408.769C349.585 407.386 348.908 406.694 347.555 406.694C346.488 406.694 345.759 407.148 345.366 408.057V415H343.74V405.49H345.278ZM365.965 415C365.872 414.812 365.795 414.479 365.737 413.998C364.981 414.783 364.079 415.176 363.03 415.176C362.092 415.176 361.322 414.912 360.718 414.385C360.121 413.852 359.822 413.178 359.822 412.363C359.822 411.373 360.197 410.605 360.947 410.061C361.703 409.51 362.763 409.234 364.128 409.234H365.71V408.487C365.71 407.919 365.541 407.468 365.201 407.134C364.861 406.794 364.36 406.624 363.698 406.624C363.118 406.624 362.631 406.771 362.239 407.063C361.846 407.356 361.65 407.711 361.65 408.127H360.015C360.015 407.652 360.182 407.195 360.516 406.756C360.856 406.311 361.313 405.959 361.887 405.701C362.467 405.443 363.103 405.314 363.794 405.314C364.89 405.314 365.749 405.59 366.37 406.141C366.991 406.686 367.313 407.438 367.336 408.399V412.776C367.336 413.649 367.448 414.344 367.67 414.859V415H365.965ZM363.267 413.761C363.777 413.761 364.26 413.629 364.717 413.365C365.174 413.102 365.505 412.759 365.71 412.337V410.386H364.436C362.444 410.386 361.448 410.969 361.448 412.135C361.448 412.645 361.618 413.043 361.958 413.33C362.297 413.617 362.734 413.761 363.267 413.761ZM374.26 413.849C374.84 413.849 375.347 413.673 375.78 413.321C376.214 412.97 376.454 412.53 376.501 412.003H378.039C378.01 412.548 377.822 413.066 377.476 413.559C377.131 414.051 376.668 414.443 376.088 414.736C375.514 415.029 374.904 415.176 374.26 415.176C372.965 415.176 371.934 414.745 371.166 413.884C370.404 413.017 370.023 411.833 370.023 410.333V410.061C370.023 409.135 370.193 408.312 370.533 407.591C370.873 406.87 371.359 406.311 371.992 405.912C372.631 405.514 373.384 405.314 374.251 405.314C375.317 405.314 376.202 405.634 376.905 406.272C377.614 406.911 377.992 407.74 378.039 408.76H376.501C376.454 408.145 376.22 407.641 375.798 407.248C375.382 406.85 374.866 406.65 374.251 406.65C373.425 406.65 372.783 406.949 372.326 407.547C371.875 408.139 371.649 408.997 371.649 410.122V410.43C371.649 411.525 371.875 412.369 372.326 412.961C372.777 413.553 373.422 413.849 374.26 413.849ZM382.053 406.642C382.774 405.757 383.711 405.314 384.866 405.314C386.875 405.314 387.889 406.448 387.907 408.716V415H386.281V408.707C386.275 408.021 386.117 407.515 385.806 407.187C385.501 406.858 385.024 406.694 384.373 406.694C383.846 406.694 383.383 406.835 382.985 407.116C382.586 407.397 382.276 407.767 382.053 408.224V415H380.427V401.5H382.053V406.642ZM390.936 414.147C390.936 413.866 391.018 413.632 391.182 413.444C391.352 413.257 391.604 413.163 391.938 413.163C392.272 413.163 392.524 413.257 392.694 413.444C392.87 413.632 392.958 413.866 392.958 414.147C392.958 414.417 392.87 414.643 392.694 414.824C392.524 415.006 392.272 415.097 391.938 415.097C391.604 415.097 391.352 415.006 391.182 414.824C391.018 414.643 390.936 414.417 390.936 414.147Z" fill="#0B4A72"/>
</g>
<g clip-path="url(#clip1_1_124)">
<path fill-rule="evenodd" clip-rule="evenodd" d="M268.986 249.039C284.322 249.198 299.439 250.972 314.338 254.362C331.284 258.217 342.094 271.54 339.658 285.57C336.926 301.311 322.173 313.963 302.819 317.167C295.334 318.405 286.829 319.509 277.301 320.477C234.018 324.878 196.8 322.183 174.817 322.183C152.834 322.183 155.829 321.352 131.247 320.477C106.667 319.604 117.263 320.18 81.9707 318.883C69.0201 318.407 56.0708 317.909 43.1228 317.389C41.7549 317.334 40.3927 317.209 39.0448 317.014C20.6038 319.063 -4.12113 325.887 0.583857 321.626C3.98885 318.54 9.21484 312.39 16.2608 303.172C13.896 299.307 12.794 295.021 13.0588 290.719L14.0218 274.555C14.8058 261.387 27.9458 250.874 44.3198 250.316C69.2257 249.464 90.9997 249.039 109.643 249.039C147.95 249.039 144.703 251.435 186.111 251.435C227.518 251.435 230.804 248.642 268.986 249.039Z" fill="#F8E2EE"/>
<path d="M53.665 269.203L57.8486 279.645L62.0322 269.203H64.2207V282H62.5332V277.017L62.6914 271.638L58.4902 282H57.1982L53.0059 271.664L53.1729 277.017V282H51.4854V269.203H53.665ZM70.6166 279.618L72.8315 272.49H74.5717L70.7485 283.468C70.1567 285.05 69.2162 285.841 67.9272 285.841L67.6196 285.814L67.0131 285.7V284.382L67.4526 284.417C68.0034 284.417 68.4311 284.306 68.7358 284.083C69.0463 283.86 69.3012 283.453 69.5004 282.861L69.8608 281.895L66.4682 272.49H68.2436L70.6166 279.618ZM83.1448 272.49L83.1888 273.545C83.8861 272.725 84.8265 272.314 86.0101 272.314C87.3402 272.314 88.2454 272.824 88.7259 273.844C89.0423 273.387 89.4525 273.018 89.9564 272.736C90.4661 272.455 91.0667 272.314 91.7581 272.314C93.8441 272.314 94.9046 273.419 94.9398 275.628V282H93.3138V275.725C93.3138 275.045 93.1585 274.538 92.848 274.204C92.5374 273.864 92.0159 273.694 91.2835 273.694C90.68 273.694 90.179 273.876 89.7806 274.239C89.3821 274.597 89.1507 275.08 89.0863 275.689V282H87.4515V275.769C87.4515 274.386 86.7747 273.694 85.4212 273.694C84.3548 273.694 83.6253 274.148 83.2327 275.057V282H81.6068V272.49H83.1448ZM101.907 282.176C100.618 282.176 99.5691 281.754 98.7605 280.91C97.9519 280.061 97.5476 278.927 97.5476 277.509V277.21C97.5476 276.267 97.7263 275.426 98.0838 274.688C98.447 273.943 98.9509 273.363 99.5955 272.947C100.246 272.525 100.949 272.314 101.705 272.314C102.941 272.314 103.902 272.722 104.588 273.536C105.273 274.351 105.616 275.517 105.616 277.034V277.711H99.1736C99.197 278.648 99.4695 279.407 99.991 279.987C100.518 280.562 101.186 280.849 101.995 280.849C102.569 280.849 103.055 280.731 103.454 280.497C103.852 280.263 104.201 279.952 104.5 279.565L105.493 280.339C104.696 281.563 103.501 282.176 101.907 282.176ZM101.705 273.65C101.049 273.65 100.498 273.891 100.053 274.371C99.6072 274.846 99.3318 275.514 99.2263 276.375H103.99V276.252C103.943 275.426 103.72 274.787 103.322 274.336C102.924 273.879 102.385 273.65 101.705 273.65ZM107.67 277.166C107.67 275.707 108.016 274.535 108.707 273.65C109.399 272.76 110.304 272.314 111.423 272.314C112.536 272.314 113.418 272.695 114.069 273.457V268.5H115.695V282H114.2L114.121 280.98C113.471 281.777 112.566 282.176 111.405 282.176C110.304 282.176 109.404 281.725 108.707 280.822C108.016 279.92 107.67 278.742 107.67 277.289V277.166ZM109.296 277.351C109.296 278.429 109.519 279.272 109.964 279.882C110.409 280.491 111.025 280.796 111.81 280.796C112.841 280.796 113.594 280.333 114.069 279.407V275.039C113.582 274.143 112.835 273.694 111.827 273.694C111.03 273.694 110.409 274.002 109.964 274.617C109.519 275.232 109.296 276.144 109.296 277.351ZM120.552 282H118.926V272.49H120.552V282ZM118.795 269.968C118.795 269.704 118.874 269.481 119.032 269.3C119.196 269.118 119.436 269.027 119.753 269.027C120.069 269.027 120.309 269.118 120.473 269.3C120.637 269.481 120.719 269.704 120.719 269.968C120.719 270.231 120.637 270.451 120.473 270.627C120.309 270.803 120.069 270.891 119.753 270.891C119.436 270.891 119.196 270.803 119.032 270.627C118.874 270.451 118.795 270.231 118.795 269.968ZM127.537 280.849C128.117 280.849 128.624 280.673 129.058 280.321C129.491 279.97 129.732 279.53 129.778 279.003H131.316C131.287 279.548 131.1 280.066 130.754 280.559C130.408 281.051 129.945 281.443 129.365 281.736C128.791 282.029 128.182 282.176 127.537 282.176C126.242 282.176 125.211 281.745 124.443 280.884C123.682 280.017 123.301 278.833 123.301 277.333V277.061C123.301 276.135 123.471 275.312 123.811 274.591C124.15 273.87 124.637 273.311 125.27 272.912C125.908 272.514 126.661 272.314 127.528 272.314C128.595 272.314 129.48 272.634 130.183 273.272C130.892 273.911 131.27 274.74 131.316 275.76H129.778C129.732 275.145 129.497 274.641 129.075 274.248C128.659 273.85 128.144 273.65 127.528 273.65C126.702 273.65 126.061 273.949 125.604 274.547C125.152 275.139 124.927 275.997 124.927 277.122V277.43C124.927 278.525 125.152 279.369 125.604 279.961C126.055 280.553 126.699 280.849 127.537 280.849ZM135.471 282H133.845V272.49H135.471V282ZM133.713 269.968C133.713 269.704 133.793 269.481 133.951 269.3C134.115 269.118 134.355 269.027 134.671 269.027C134.988 269.027 135.228 269.118 135.392 269.3C135.556 269.481 135.638 269.704 135.638 269.968C135.638 270.231 135.556 270.451 135.392 270.627C135.228 270.803 134.988 270.891 134.671 270.891C134.355 270.891 134.115 270.803 133.951 270.627C133.793 270.451 133.713 270.231 133.713 269.968ZM140.18 272.49L140.232 273.686C140.959 272.771 141.908 272.314 143.08 272.314C145.09 272.314 146.103 273.448 146.121 275.716V282H144.495V275.707C144.489 275.021 144.331 274.515 144.02 274.187C143.716 273.858 143.238 273.694 142.588 273.694C142.061 273.694 141.598 273.835 141.199 274.116C140.801 274.397 140.49 274.767 140.268 275.224V282H138.642V272.49H140.18ZM153.079 282.176C151.79 282.176 150.742 281.754 149.933 280.91C149.124 280.061 148.72 278.927 148.72 277.509V277.21C148.72 276.267 148.899 275.426 149.256 274.688C149.62 273.943 150.123 273.363 150.768 272.947C151.418 272.525 152.121 272.314 152.877 272.314C154.114 272.314 155.075 272.722 155.76 273.536C156.446 274.351 156.788 275.517 156.788 277.034V277.711H150.346C150.37 278.648 150.642 279.407 151.163 279.987C151.691 280.562 152.359 280.849 153.167 280.849C153.742 280.849 154.228 280.731 154.626 280.497C155.025 280.263 155.373 279.952 155.672 279.565L156.665 280.339C155.869 281.563 154.673 282.176 153.079 282.176ZM152.877 273.65C152.221 273.65 151.67 273.891 151.225 274.371C150.78 274.846 150.504 275.514 150.399 276.375H155.162V276.252C155.116 275.426 154.893 274.787 154.495 274.336C154.096 273.879 153.557 273.65 152.877 273.65ZM163.867 277.166C163.867 275.707 164.213 274.535 164.905 273.65C165.596 272.76 166.501 272.314 167.62 272.314C168.734 272.314 169.616 272.695 170.266 273.457V268.5H171.892V282H170.398L170.319 280.98C169.668 281.777 168.763 282.176 167.603 282.176C166.501 282.176 165.602 281.725 164.905 280.822C164.213 279.92 163.867 278.742 163.867 277.289V277.166ZM165.493 277.351C165.493 278.429 165.716 279.272 166.161 279.882C166.607 280.491 167.222 280.796 168.007 280.796C169.038 280.796 169.791 280.333 170.266 279.407V275.039C169.78 274.143 169.033 273.694 168.025 273.694C167.228 273.694 166.607 274.002 166.161 274.617C165.716 275.232 165.493 276.144 165.493 277.351ZM174.552 277.157C174.552 276.226 174.734 275.388 175.097 274.644C175.467 273.899 175.976 273.325 176.627 272.921C177.283 272.517 178.03 272.314 178.868 272.314C180.163 272.314 181.209 272.763 182.006 273.659C182.808 274.556 183.21 275.748 183.21 277.236V277.351C183.21 278.276 183.031 279.108 182.674 279.847C182.322 280.579 181.815 281.15 181.153 281.561C180.497 281.971 179.741 282.176 178.885 282.176C177.596 282.176 176.551 281.728 175.748 280.831C174.951 279.935 174.552 278.748 174.552 277.271V277.157ZM176.187 277.351C176.187 278.405 176.43 279.252 176.917 279.891C177.409 280.529 178.065 280.849 178.885 280.849C179.712 280.849 180.368 280.526 180.854 279.882C181.341 279.231 181.584 278.323 181.584 277.157C181.584 276.114 181.335 275.271 180.837 274.626C180.344 273.976 179.688 273.65 178.868 273.65C178.065 273.65 177.418 273.97 176.926 274.608C176.433 275.247 176.187 276.161 176.187 277.351ZM189.755 282.176C188.466 282.176 187.417 281.754 186.609 280.91C185.8 280.061 185.396 278.927 185.396 277.509V277.21C185.396 276.267 185.574 275.426 185.932 274.688C186.295 273.943 186.799 273.363 187.444 272.947C188.094 272.525 188.797 272.314 189.553 272.314C190.789 272.314 191.75 272.722 192.436 273.536C193.121 274.351 193.464 275.517 193.464 277.034V277.711H187.022C187.045 278.648 187.318 279.407 187.839 279.987C188.366 280.562 189.034 280.849 189.843 280.849C190.417 280.849 190.903 280.731 191.302 280.497C191.7 280.263 192.049 279.952 192.348 279.565L193.341 280.339C192.544 281.563 191.349 282.176 189.755 282.176ZM189.553 273.65C188.897 273.65 188.346 273.891 187.901 274.371C187.455 274.846 187.18 275.514 187.074 276.375H191.838V276.252C191.791 275.426 191.569 274.787 191.17 274.336C190.772 273.879 190.233 273.65 189.553 273.65ZM201.451 279.478C201.451 279.038 201.284 278.698 200.95 278.458C200.622 278.212 200.045 278.001 199.218 277.825C198.398 277.649 197.745 277.438 197.258 277.192C196.778 276.946 196.421 276.653 196.186 276.313C195.958 275.974 195.843 275.569 195.843 275.101C195.843 274.321 196.171 273.662 196.828 273.123C197.49 272.584 198.334 272.314 199.359 272.314C200.437 272.314 201.31 272.593 201.978 273.149C202.652 273.706 202.989 274.418 202.989 275.285H201.354C201.354 274.84 201.164 274.456 200.783 274.134C200.408 273.812 199.933 273.65 199.359 273.65C198.767 273.65 198.304 273.779 197.97 274.037C197.636 274.295 197.469 274.632 197.469 275.048C197.469 275.44 197.625 275.736 197.935 275.936C198.246 276.135 198.805 276.325 199.614 276.507C200.428 276.688 201.087 276.905 201.591 277.157C202.095 277.409 202.467 277.714 202.708 278.071C202.954 278.423 203.077 278.854 203.077 279.363C203.077 280.213 202.737 280.896 202.057 281.411C201.378 281.921 200.496 282.176 199.412 282.176C198.65 282.176 197.976 282.041 197.39 281.771C196.804 281.502 196.344 281.127 196.01 280.646C195.682 280.16 195.518 279.636 195.518 279.073H197.144C197.173 279.618 197.39 280.052 197.795 280.374C198.205 280.69 198.744 280.849 199.412 280.849C200.027 280.849 200.519 280.726 200.888 280.479C201.263 280.228 201.451 279.894 201.451 279.478ZM207.293 272.49L207.346 273.686C208.072 272.771 209.022 272.314 210.193 272.314C212.203 272.314 213.217 273.448 213.234 275.716V282H211.608V275.707C211.603 275.021 211.444 274.515 211.134 274.187C210.829 273.858 210.352 273.694 209.701 273.694C209.174 273.694 208.711 273.835 208.313 274.116C207.914 274.397 207.604 274.767 207.381 275.224V282H205.755V272.49H207.293ZM215.658 272.807L214.735 272.174C215.28 271.412 215.561 270.609 215.579 269.766V268.5H217.187V269.643C217.181 270.229 217.035 270.814 216.748 271.4C216.466 271.98 216.103 272.449 215.658 272.807ZM221.913 270.188V272.49H223.688V273.747H221.913V279.645C221.913 280.025 221.992 280.312 222.15 280.506C222.309 280.693 222.578 280.787 222.959 280.787C223.146 280.787 223.404 280.752 223.732 280.682V282C223.305 282.117 222.889 282.176 222.484 282.176C221.758 282.176 221.21 281.956 220.841 281.517C220.472 281.077 220.287 280.453 220.287 279.645V273.747H218.556V272.49H220.287V270.188H221.913ZM236.718 279.478C236.718 279.038 236.551 278.698 236.217 278.458C235.888 278.212 235.311 278.001 234.485 277.825C233.665 277.649 233.012 277.438 232.525 277.192C232.045 276.946 231.687 276.653 231.453 276.313C231.224 275.974 231.11 275.569 231.11 275.101C231.11 274.321 231.438 273.662 232.095 273.123C232.757 272.584 233.6 272.314 234.626 272.314C235.704 272.314 236.577 272.593 237.245 273.149C237.919 273.706 238.256 274.418 238.256 275.285H236.621C236.621 274.84 236.43 274.456 236.05 274.134C235.675 273.812 235.2 273.65 234.626 273.65C234.034 273.65 233.571 273.779 233.237 274.037C232.903 274.295 232.736 274.632 232.736 275.048C232.736 275.44 232.891 275.736 233.202 275.936C233.512 276.135 234.072 276.325 234.881 276.507C235.695 276.688 236.354 276.905 236.858 277.157C237.362 277.409 237.734 277.714 237.974 278.071C238.221 278.423 238.344 278.854 238.344 279.363C238.344 280.213 238.004 280.896 237.324 281.411C236.644 281.921 235.762 282.176 234.679 282.176C233.917 282.176 233.243 282.041 232.657 281.771C232.071 281.502 231.611 281.127 231.277 280.646C230.949 280.16 230.785 279.636 230.785 279.073H232.411C232.44 279.618 232.657 280.052 233.061 280.374C233.471 280.69 234.011 280.849 234.679 280.849C235.294 280.849 235.786 280.726 236.155 280.479C236.53 280.228 236.718 279.894 236.718 279.478ZM244.968 282.176C243.679 282.176 242.63 281.754 241.822 280.91C241.013 280.061 240.609 278.927 240.609 277.509V277.21C240.609 276.267 240.787 275.426 241.145 274.688C241.508 273.943 242.012 273.363 242.656 272.947C243.307 272.525 244.01 272.314 244.766 272.314C246.002 272.314 246.963 272.722 247.649 273.536C248.334 274.351 248.677 275.517 248.677 277.034V277.711H242.235C242.258 278.648 242.531 279.407 243.052 279.987C243.579 280.562 244.247 280.849 245.056 280.849C245.63 280.849 246.116 280.731 246.515 280.497C246.913 280.263 247.262 279.952 247.561 279.565L248.554 280.339C247.757 281.563 246.562 282.176 244.968 282.176ZM244.766 273.65C244.11 273.65 243.559 273.891 243.114 274.371C242.668 274.846 242.393 275.514 242.287 276.375H247.051V276.252C247.004 275.426 246.781 274.787 246.383 274.336C245.985 273.879 245.446 273.65 244.766 273.65ZM255.073 282.176C253.784 282.176 252.735 281.754 251.926 280.91C251.118 280.061 250.714 278.927 250.714 277.509V277.21C250.714 276.267 250.892 275.426 251.25 274.688C251.613 273.943 252.117 273.363 252.761 272.947C253.412 272.525 254.115 272.314 254.871 272.314C256.107 272.314 257.068 272.722 257.754 273.536C258.439 274.351 258.782 275.517 258.782 277.034V277.711H252.34C252.363 278.648 252.635 279.407 253.157 279.987C253.684 280.562 254.352 280.849 255.161 280.849C255.735 280.849 256.221 280.731 256.62 280.497C257.018 280.263 257.367 279.952 257.666 279.565L258.659 280.339C257.862 281.563 256.667 282.176 255.073 282.176ZM254.871 273.65C254.215 273.65 253.664 273.891 253.218 274.371C252.773 274.846 252.498 275.514 252.392 276.375H257.156V276.252C257.109 275.426 256.886 274.787 256.488 274.336C256.09 273.879 255.55 273.65 254.871 273.65ZM262.761 272.49L262.805 273.545C263.502 272.725 264.443 272.314 265.626 272.314C266.956 272.314 267.861 272.824 268.342 273.844C268.658 273.387 269.068 273.018 269.572 272.736C270.082 272.455 270.683 272.314 271.374 272.314C273.46 272.314 274.521 273.419 274.556 275.628V282H272.93V275.725C272.93 275.045 272.775 274.538 272.464 274.204C272.153 273.864 271.632 273.694 270.9 273.694C270.296 273.694 269.795 273.876 269.397 274.239C268.998 274.597 268.767 275.08 268.702 275.689V282H267.068V275.769C267.068 274.386 266.391 273.694 265.037 273.694C263.971 273.694 263.241 274.148 262.849 275.057V282H261.223V272.49H262.761ZM53.4365 293.188V295.49H55.2119V296.747H53.4365V302.645C53.4365 303.025 53.5156 303.312 53.6738 303.506C53.832 303.693 54.1016 303.787 54.4824 303.787C54.6699 303.787 54.9277 303.752 55.2559 303.682V305C54.8281 305.117 54.4121 305.176 54.0078 305.176C53.2812 305.176 52.7334 304.956 52.3643 304.517C51.9951 304.077 51.8105 303.453 51.8105 302.645V296.747H50.0791V295.49H51.8105V293.188H53.4365ZM57.0727 300.157C57.0727 299.226 57.2543 298.388 57.6176 297.644C57.9868 296.899 58.4965 296.325 59.1469 295.921C59.8032 295.517 60.5502 295.314 61.3881 295.314C62.683 295.314 63.7289 295.763 64.5258 296.659C65.3286 297.556 65.7299 298.748 65.7299 300.236V300.351C65.7299 301.276 65.5512 302.108 65.1938 302.847C64.8422 303.579 64.3354 304.15 63.6733 304.561C63.017 304.971 62.2612 305.176 61.4057 305.176C60.1166 305.176 59.0707 304.728 58.268 303.831C57.4711 302.935 57.0727 301.748 57.0727 300.271V300.157ZM58.7075 300.351C58.7075 301.405 58.9506 302.252 59.437 302.891C59.9291 303.529 60.5854 303.849 61.4057 303.849C62.2319 303.849 62.8881 303.526 63.3745 302.882C63.8608 302.231 64.1039 301.323 64.1039 300.157C64.1039 299.114 63.8549 298.271 63.3569 297.626C62.8647 296.976 62.2084 296.65 61.3881 296.65C60.5854 296.65 59.9379 296.97 59.4457 297.608C58.9536 298.247 58.7075 299.161 58.7075 300.351ZM81.4046 300.351C81.4046 301.804 81.0706 302.973 80.4027 303.857C79.7347 304.736 78.8382 305.176 77.7132 305.176C76.512 305.176 75.5833 304.751 74.9271 303.901L74.848 305H73.3538V291.5H74.9798V296.536C75.6361 295.722 76.5413 295.314 77.6956 295.314C78.8499 295.314 79.7552 295.751 80.4114 296.624C81.0736 297.497 81.4046 298.692 81.4046 300.21V300.351ZM79.7786 300.166C79.7786 299.059 79.5648 298.203 79.137 297.6C78.7093 296.996 78.0941 296.694 77.2913 296.694C76.2191 296.694 75.4486 297.192 74.9798 298.188V302.302C75.4779 303.298 76.2542 303.796 77.3089 303.796C78.0882 303.796 78.6946 303.494 79.1282 302.891C79.5618 302.287 79.7786 301.379 79.7786 300.166ZM87.9675 305.176C86.6785 305.176 85.6297 304.754 84.8211 303.91C84.0125 303.061 83.6082 301.927 83.6082 300.509V300.21C83.6082 299.267 83.7869 298.426 84.1443 297.688C84.5076 296.943 85.0115 296.363 85.656 295.947C86.3064 295.525 87.0095 295.314 87.7654 295.314C89.0017 295.314 89.9627 295.722 90.6482 296.536C91.3338 297.351 91.6765 298.517 91.6765 300.034V300.711H85.2341C85.2576 301.648 85.53 302.407 86.0515 302.987C86.5789 303.562 87.2468 303.849 88.0554 303.849C88.6297 303.849 89.116 303.731 89.5144 303.497C89.9129 303.263 90.2615 302.952 90.5603 302.565L91.5535 303.339C90.7566 304.563 89.5613 305.176 87.9675 305.176ZM87.7654 296.65C87.1091 296.65 86.5584 296.891 86.113 297.371C85.6677 297.846 85.3923 298.514 85.2869 299.375H90.0505V299.252C90.0037 298.426 89.781 297.787 89.3826 297.336C88.9841 296.879 88.4451 296.65 87.7654 296.65ZM107.571 302.759L109.399 295.49H111.025L108.256 305H106.938L104.627 297.793L102.377 305H101.058L98.2985 295.49H99.9157L101.788 302.609L104.003 295.49H105.312L107.571 302.759ZM112.816 300.157C112.816 299.226 112.997 298.388 113.36 297.644C113.73 296.899 114.239 296.325 114.89 295.921C115.546 295.517 116.293 295.314 117.131 295.314C118.426 295.314 119.472 295.763 120.269 296.659C121.071 297.556 121.473 298.748 121.473 300.236V300.351C121.473 301.276 121.294 302.108 120.937 302.847C120.585 303.579 120.078 304.15 119.416 304.561C118.76 304.971 118.004 305.176 117.149 305.176C115.859 305.176 114.814 304.728 114.011 303.831C113.214 302.935 112.816 301.748 112.816 300.271V300.157ZM114.45 300.351C114.45 301.405 114.693 302.252 115.18 302.891C115.672 303.529 116.328 303.849 117.149 303.849C117.975 303.849 118.631 303.526 119.117 302.882C119.604 302.231 119.847 301.323 119.847 300.157C119.847 299.114 119.598 298.271 119.1 297.626C118.607 296.976 117.951 296.65 117.131 296.65C116.328 296.65 115.681 296.97 115.189 297.608C114.696 298.247 114.45 299.161 114.45 300.351ZM128.668 296.949C128.422 296.908 128.156 296.888 127.869 296.888C126.802 296.888 126.079 297.342 125.698 298.25V305H124.072V295.49H125.654L125.68 296.589C126.213 295.739 126.969 295.314 127.948 295.314C128.264 295.314 128.504 295.355 128.668 295.438V296.949ZM133.386 300.597L132.366 301.66V305H130.74V291.5H132.366V299.665L133.236 298.619L136.198 295.49H138.176L134.476 299.463L138.606 305H136.699L133.386 300.597ZM142.181 305H140.555V295.49H142.181V305ZM140.423 292.968C140.423 292.704 140.502 292.481 140.661 292.3C140.825 292.118 141.065 292.027 141.381 292.027C141.698 292.027 141.938 292.118 142.102 292.3C142.266 292.481 142.348 292.704 142.348 292.968C142.348 293.231 142.266 293.451 142.102 293.627C141.938 293.803 141.698 293.891 141.381 293.891C141.065 293.891 140.825 293.803 140.661 293.627C140.502 293.451 140.423 293.231 140.423 292.968ZM146.889 295.49L146.942 296.686C147.669 295.771 148.618 295.314 149.79 295.314C151.8 295.314 152.813 296.448 152.831 298.716V305H151.205V298.707C151.199 298.021 151.041 297.515 150.73 297.187C150.426 296.858 149.948 296.694 149.298 296.694C148.77 296.694 148.307 296.835 147.909 297.116C147.511 297.397 147.2 297.767 146.977 298.224V305H145.351V295.49H146.889ZM155.456 300.166C155.456 298.684 155.799 297.506 156.485 296.633C157.17 295.754 158.078 295.314 159.209 295.314C160.369 295.314 161.275 295.725 161.925 296.545L162.004 295.49H163.49V304.771C163.49 306.002 163.123 306.972 162.391 307.681C161.664 308.39 160.686 308.744 159.455 308.744C158.77 308.744 158.099 308.598 157.443 308.305C156.786 308.012 156.285 307.61 155.94 307.101L156.783 306.125C157.481 306.986 158.333 307.417 159.341 307.417C160.132 307.417 160.747 307.194 161.187 306.749C161.632 306.304 161.855 305.677 161.855 304.868V304.051C161.204 304.801 160.317 305.176 159.192 305.176C158.078 305.176 157.176 304.728 156.485 303.831C155.799 302.935 155.456 301.713 155.456 300.166ZM157.091 300.351C157.091 301.423 157.311 302.267 157.75 302.882C158.19 303.491 158.805 303.796 159.596 303.796C160.621 303.796 161.374 303.33 161.855 302.398V298.057C161.357 297.148 160.61 296.694 159.614 296.694C158.823 296.694 158.204 297.002 157.759 297.617C157.314 298.232 157.091 299.144 157.091 300.351ZM166.546 304.147C166.546 303.866 166.628 303.632 166.792 303.444C166.962 303.257 167.214 303.163 167.548 303.163C167.882 303.163 168.134 303.257 168.303 303.444C168.479 303.632 168.567 303.866 168.567 304.147C168.567 304.417 168.479 304.643 168.303 304.824C168.134 305.006 167.882 305.097 167.548 305.097C167.214 305.097 166.962 305.006 166.792 304.824C166.628 304.643 166.546 304.417 166.546 304.147Z" fill="#0B4A72"/>
</g>
<g clip-path="url(#clip2_1_124)">
<path fill-rule="evenodd" clip-rule="evenodd" d="M214.957 146.034C200.929 146.174 187.101 147.732 173.473 150.71C157.972 154.096 148.084 165.799 150.313 178.122C152.812 191.948 166.306 203.062 184.009 205.876C190.856 206.964 198.635 207.933 207.351 208.784C246.942 212.649 280.986 210.282 301.094 210.282C321.202 210.282 318.463 209.552 340.948 208.784C363.431 208.017 353.739 208.523 386.021 207.384C397.867 206.965 409.712 206.528 421.555 206.071C422.807 206.023 424.053 205.913 425.285 205.742C442.154 207.542 464.77 213.536 460.466 209.793C457.351 207.083 452.571 201.68 446.126 193.583C448.289 190.189 449.297 186.424 449.055 182.645L448.174 168.447C447.457 156.88 435.438 147.646 420.46 147.156C397.679 146.408 377.762 146.034 360.709 146.034C325.67 146.034 328.64 148.139 290.764 148.139C252.888 148.139 249.882 145.686 214.957 146.034Z" fill="#D7E0E9"/>
<path d="M203.296 172H201.608V159.203H203.296V172ZM213.346 163.642C214.066 162.757 215.004 162.314 216.158 162.314C218.168 162.314 219.182 163.448 219.199 165.716V172H217.573V165.707C217.567 165.021 217.409 164.515 217.099 164.187C216.794 163.858 216.316 163.694 215.666 163.694C215.139 163.694 214.676 163.835 214.277 164.116C213.879 164.397 213.568 164.767 213.346 165.224V172H211.72V158.5H213.346V163.642ZM228.065 172C227.971 171.812 227.895 171.479 227.836 170.998C227.08 171.783 226.178 172.176 225.129 172.176C224.192 172.176 223.421 171.912 222.818 171.385C222.22 170.852 221.921 170.178 221.921 169.363C221.921 168.373 222.296 167.605 223.046 167.061C223.802 166.51 224.863 166.234 226.228 166.234H227.81V165.487C227.81 164.919 227.64 164.468 227.3 164.134C226.96 163.794 226.459 163.624 225.797 163.624C225.217 163.624 224.731 163.771 224.338 164.063C223.946 164.356 223.749 164.711 223.749 165.127H222.115C222.115 164.652 222.282 164.195 222.616 163.756C222.955 163.311 223.412 162.959 223.987 162.701C224.567 162.443 225.202 162.314 225.894 162.314C226.99 162.314 227.848 162.59 228.469 163.141C229.09 163.686 229.412 164.438 229.436 165.399V169.776C229.436 170.649 229.547 171.344 229.77 171.859V172H228.065ZM225.367 170.761C225.876 170.761 226.36 170.629 226.817 170.365C227.274 170.102 227.605 169.759 227.81 169.337V167.386H226.535C224.543 167.386 223.547 167.969 223.547 169.135C223.547 169.645 223.717 170.043 224.057 170.33C224.397 170.617 224.833 170.761 225.367 170.761ZM235.542 169.794L237.897 162.49H239.558L236.148 172H234.909L231.464 162.49H233.125L235.542 169.794ZM245.506 172.176C244.217 172.176 243.168 171.754 242.36 170.91C241.551 170.061 241.147 168.927 241.147 167.509V167.21C241.147 166.267 241.325 165.426 241.683 164.688C242.046 163.943 242.55 163.363 243.195 162.947C243.845 162.525 244.548 162.314 245.304 162.314C246.54 162.314 247.501 162.722 248.187 163.536C248.872 164.351 249.215 165.517 249.215 167.034V167.711H242.773C242.796 168.648 243.069 169.407 243.59 169.987C244.117 170.562 244.785 170.849 245.594 170.849C246.168 170.849 246.654 170.731 247.053 170.497C247.451 170.263 247.8 169.952 248.099 169.565L249.092 170.339C248.295 171.563 247.1 172.176 245.506 172.176ZM245.304 163.65C244.648 163.65 244.097 163.891 243.652 164.371C243.206 164.846 242.931 165.514 242.825 166.375H247.589V166.252C247.542 165.426 247.32 164.787 246.921 164.336C246.523 163.879 245.984 163.65 245.304 163.65ZM262.561 172C262.467 171.812 262.391 171.479 262.332 170.998C261.576 171.783 260.674 172.176 259.625 172.176C258.688 172.176 257.917 171.912 257.314 171.385C256.716 170.852 256.417 170.178 256.417 169.363C256.417 168.373 256.792 167.605 257.542 167.061C258.298 166.51 259.358 166.234 260.724 166.234H262.306V165.487C262.306 164.919 262.136 164.468 261.796 164.134C261.456 163.794 260.955 163.624 260.293 163.624C259.713 163.624 259.227 163.771 258.834 164.063C258.441 164.356 258.245 164.711 258.245 165.127H256.61C256.61 164.652 256.777 164.195 257.111 163.756C257.451 163.311 257.908 162.959 258.482 162.701C259.063 162.443 259.698 162.314 260.39 162.314C261.485 162.314 262.344 162.59 262.965 163.141C263.586 163.686 263.908 164.438 263.932 165.399V169.776C263.932 170.649 264.043 171.344 264.266 171.859V172H262.561ZM259.862 170.761C260.372 170.761 260.856 170.629 261.313 170.365C261.77 170.102 262.101 169.759 262.306 169.337V167.386H261.031C259.039 167.386 258.043 167.969 258.043 169.135C258.043 169.645 258.213 170.043 258.553 170.33C258.893 170.617 259.329 170.761 259.862 170.761ZM273.691 163.642C274.412 162.757 275.35 162.314 276.504 162.314C278.514 162.314 279.527 163.448 279.545 165.716V172H277.919V165.707C277.913 165.021 277.755 164.515 277.444 164.187C277.14 163.858 276.662 163.694 276.012 163.694C275.484 163.694 275.021 163.835 274.623 164.116C274.225 164.397 273.914 164.767 273.691 165.224V172H272.065V158.5H273.691V163.642ZM286.486 172.176C285.197 172.176 284.148 171.754 283.339 170.91C282.531 170.061 282.126 168.927 282.126 167.509V167.21C282.126 166.267 282.305 165.426 282.662 164.688C283.026 163.943 283.53 163.363 284.174 162.947C284.825 162.525 285.528 162.314 286.284 162.314C287.52 162.314 288.481 162.722 289.166 163.536C289.852 164.351 290.195 165.517 290.195 167.034V167.711H283.752C283.776 168.648 284.048 169.407 284.57 169.987C285.097 170.562 285.765 170.849 286.574 170.849C287.148 170.849 287.634 170.731 288.033 170.497C288.431 170.263 288.78 169.952 289.079 169.565L290.072 170.339C289.275 171.563 288.079 172.176 286.486 172.176ZM286.284 163.65C285.627 163.65 285.077 163.891 284.631 164.371C284.186 164.846 283.911 165.514 283.805 166.375H288.569V166.252C288.522 165.426 288.299 164.787 287.901 164.336C287.502 163.879 286.963 163.65 286.284 163.65ZM298.515 172C298.422 171.812 298.346 171.479 298.287 170.998C297.531 171.783 296.629 172.176 295.58 172.176C294.642 172.176 293.872 171.912 293.268 171.385C292.671 170.852 292.372 170.178 292.372 169.363C292.372 168.373 292.747 167.605 293.497 167.061C294.253 166.51 295.313 166.234 296.679 166.234H298.261V165.487C298.261 164.919 298.091 164.468 297.751 164.134C297.411 163.794 296.91 163.624 296.248 163.624C295.668 163.624 295.181 163.771 294.789 164.063C294.396 164.356 294.2 164.711 294.2 165.127H292.565C292.565 164.652 292.732 164.195 293.066 163.756C293.406 163.311 293.863 162.959 294.437 162.701C295.017 162.443 295.653 162.314 296.345 162.314C297.44 162.314 298.299 162.59 298.92 163.141C299.541 163.686 299.863 164.438 299.887 165.399V169.776C299.887 170.649 299.998 171.344 300.221 171.859V172H298.515ZM295.817 170.761C296.327 170.761 296.81 170.629 297.267 170.365C297.724 170.102 298.056 169.759 298.261 169.337V167.386H296.986C294.994 167.386 293.998 167.969 293.998 169.135C293.998 169.645 294.168 170.043 294.508 170.33C294.848 170.617 295.284 170.761 295.817 170.761ZM302.6 167.166C302.6 165.707 302.946 164.535 303.637 163.65C304.328 162.76 305.234 162.314 306.353 162.314C307.466 162.314 308.348 162.695 308.998 163.457V158.5H310.624V172H309.13L309.051 170.98C308.401 171.777 307.495 172.176 306.335 172.176C305.234 172.176 304.334 171.725 303.637 170.822C302.946 169.92 302.6 168.742 302.6 167.289V167.166ZM304.226 167.351C304.226 168.429 304.449 169.272 304.894 169.882C305.339 170.491 305.954 170.796 306.74 170.796C307.771 170.796 308.524 170.333 308.998 169.407V165.039C308.512 164.143 307.765 163.694 306.757 163.694C305.96 163.694 305.339 164.002 304.894 164.617C304.449 165.232 304.226 166.144 304.226 167.351ZM319.587 172C319.493 171.812 319.417 171.479 319.358 170.998C318.602 171.783 317.7 172.176 316.651 172.176C315.714 172.176 314.943 171.912 314.34 171.385C313.742 170.852 313.443 170.178 313.443 169.363C313.443 168.373 313.818 167.605 314.568 167.061C315.324 166.51 316.384 166.234 317.75 166.234H319.332V165.487C319.332 164.919 319.162 164.468 318.822 164.134C318.482 163.794 317.981 163.624 317.319 163.624C316.739 163.624 316.253 163.771 315.86 164.063C315.467 164.356 315.271 164.711 315.271 165.127H313.636C313.636 164.652 313.803 164.195 314.137 163.756C314.477 163.311 314.934 162.959 315.509 162.701C316.089 162.443 316.724 162.314 317.416 162.314C318.511 162.314 319.37 162.59 319.991 163.141C320.612 163.686 320.934 164.438 320.958 165.399V169.776C320.958 170.649 321.069 171.344 321.292 171.859V172H319.587ZM316.888 170.761C317.398 170.761 317.882 170.629 318.339 170.365C318.796 170.102 319.127 169.759 319.332 169.337V167.386H318.057C316.065 167.386 315.069 167.969 315.069 169.135C315.069 169.645 315.239 170.043 315.579 170.33C315.919 170.617 316.355 170.761 316.888 170.761ZM327.881 170.849C328.461 170.849 328.968 170.673 329.402 170.321C329.835 169.97 330.075 169.53 330.122 169.003H331.66C331.631 169.548 331.444 170.066 331.098 170.559C330.752 171.051 330.289 171.443 329.709 171.736C329.135 172.029 328.526 172.176 327.881 172.176C326.586 172.176 325.555 171.745 324.787 170.884C324.026 170.017 323.645 168.833 323.645 167.333V167.061C323.645 166.135 323.815 165.312 324.154 164.591C324.494 163.87 324.981 163.311 325.613 162.912C326.252 162.514 327.005 162.314 327.872 162.314C328.939 162.314 329.823 162.634 330.527 163.272C331.236 163.911 331.613 164.74 331.66 165.76H330.122C330.075 165.145 329.841 164.641 329.419 164.248C329.003 163.85 328.487 163.65 327.872 163.65C327.046 163.65 326.404 163.949 325.947 164.547C325.496 165.139 325.271 165.997 325.271 167.122V167.43C325.271 168.525 325.496 169.369 325.947 169.961C326.399 170.553 327.043 170.849 327.881 170.849ZM335.674 163.642C336.395 162.757 337.333 162.314 338.487 162.314C340.497 162.314 341.51 163.448 341.528 165.716V172H339.902V165.707C339.896 165.021 339.738 164.515 339.427 164.187C339.123 163.858 338.645 163.694 337.995 163.694C337.467 163.694 337.004 163.835 336.606 164.116C336.208 164.397 335.897 164.767 335.674 165.224V172H334.048V158.5H335.674V163.642ZM348.469 172.176C347.18 172.176 346.131 171.754 345.322 170.91C344.514 170.061 344.109 168.927 344.109 167.509V167.21C344.109 166.267 344.288 165.426 344.646 164.688C345.009 163.943 345.513 163.363 346.157 162.947C346.808 162.525 347.511 162.314 348.267 162.314C349.503 162.314 350.464 162.722 351.149 163.536C351.835 164.351 352.178 165.517 352.178 167.034V167.711H345.735C345.759 168.648 346.031 169.407 346.553 169.987C347.08 170.562 347.748 170.849 348.557 170.849C349.131 170.849 349.617 170.731 350.016 170.497C350.414 170.263 350.763 169.952 351.062 169.565L352.055 170.339C351.258 171.563 350.063 172.176 348.469 172.176ZM348.267 163.65C347.61 163.65 347.06 163.891 346.614 164.371C346.169 164.846 345.894 165.514 345.788 166.375H350.552V166.252C350.505 165.426 350.282 164.787 349.884 164.336C349.485 163.879 348.946 163.65 348.267 163.65ZM354.575 174.549L353.652 173.916C354.203 173.148 354.49 172.357 354.513 171.543V170.075H356.104V171.35C356.104 171.941 355.958 172.533 355.665 173.125C355.377 173.717 355.014 174.191 354.575 174.549ZM367.56 170.849C368.14 170.849 368.647 170.673 369.08 170.321C369.514 169.97 369.754 169.53 369.801 169.003H371.339C371.31 169.548 371.122 170.066 370.777 170.559C370.431 171.051 369.968 171.443 369.388 171.736C368.814 172.029 368.204 172.176 367.56 172.176C366.265 172.176 365.234 171.745 364.466 170.884C363.704 170.017 363.324 168.833 363.324 167.333V167.061C363.324 166.135 363.494 165.312 363.833 164.591C364.173 163.87 364.66 163.311 365.292 162.912C365.931 162.514 366.684 162.314 367.551 162.314C368.618 162.314 369.502 162.634 370.205 163.272C370.914 163.911 371.292 164.74 371.339 165.76H369.801C369.754 165.145 369.52 164.641 369.098 164.248C368.682 163.85 368.166 163.65 367.551 163.65C366.725 163.65 366.083 163.949 365.626 164.547C365.175 165.139 364.95 165.997 364.95 167.122V167.43C364.95 168.525 365.175 169.369 365.626 169.961C366.077 170.553 366.722 170.849 367.56 170.849ZM379.598 172C379.505 171.812 379.429 171.479 379.37 170.998C378.614 171.783 377.712 172.176 376.663 172.176C375.725 172.176 374.955 171.912 374.351 171.385C373.754 170.852 373.455 170.178 373.455 169.363C373.455 168.373 373.83 167.605 374.58 167.061C375.336 166.51 376.396 166.234 377.762 166.234H379.344V165.487C379.344 164.919 379.174 164.468 378.834 164.134C378.494 163.794 377.993 163.624 377.331 163.624C376.751 163.624 376.264 163.771 375.872 164.063C375.479 164.356 375.283 164.711 375.283 165.127H373.648C373.648 164.652 373.815 164.195 374.149 163.756C374.489 163.311 374.946 162.959 375.52 162.701C376.1 162.443 376.736 162.314 377.428 162.314C378.523 162.314 379.382 162.59 380.003 163.141C380.624 163.686 380.946 164.438 380.97 165.399V169.776C380.97 170.649 381.081 171.344 381.304 171.859V172H379.598ZM376.9 170.761C377.41 170.761 377.893 170.629 378.35 170.365C378.807 170.102 379.138 169.759 379.344 169.337V167.386H378.069C376.077 167.386 375.081 167.969 375.081 169.135C375.081 169.645 375.251 170.043 375.591 170.33C375.93 170.617 376.367 170.761 376.9 170.761ZM385.616 162.49L385.669 163.686C386.396 162.771 387.345 162.314 388.517 162.314C390.527 162.314 391.54 163.448 391.558 165.716V172H389.932V165.707C389.926 165.021 389.768 164.515 389.457 164.187C389.153 163.858 388.675 163.694 388.025 163.694C387.497 163.694 387.034 163.835 386.636 164.116C386.238 164.397 385.927 164.767 385.704 165.224V172H384.078V162.49H385.616ZM401.66 172H399.973V159.203H401.66V172ZM203.437 183.188V185.49H205.212V186.747H203.437V192.645C203.437 193.025 203.516 193.312 203.674 193.506C203.832 193.693 204.102 193.787 204.482 193.787C204.67 193.787 204.928 193.752 205.256 193.682V195C204.828 195.117 204.412 195.176 204.008 195.176C203.281 195.176 202.733 194.956 202.364 194.517C201.995 194.077 201.811 193.453 201.811 192.645V186.747H200.079V185.49H201.811V183.188H203.437ZM213.55 195C213.456 194.812 213.38 194.479 213.322 193.998C212.566 194.783 211.664 195.176 210.615 195.176C209.677 195.176 208.907 194.912 208.303 194.385C207.706 193.852 207.407 193.178 207.407 192.363C207.407 191.373 207.782 190.605 208.532 190.061C209.288 189.51 210.348 189.234 211.713 189.234H213.295V188.487C213.295 187.919 213.125 187.468 212.786 187.134C212.446 186.794 211.945 186.624 211.283 186.624C210.703 186.624 210.216 186.771 209.824 187.063C209.431 187.356 209.235 187.711 209.235 188.127H207.6C207.6 187.652 207.767 187.195 208.101 186.756C208.441 186.311 208.898 185.959 209.472 185.701C210.052 185.443 210.688 185.314 211.379 185.314C212.475 185.314 213.333 185.59 213.955 186.141C214.576 186.686 214.898 187.438 214.921 188.399V192.776C214.921 193.649 215.033 194.344 215.255 194.859V195H213.55ZM210.852 193.761C211.362 193.761 211.845 193.629 212.302 193.365C212.759 193.102 213.09 192.759 213.295 192.337V190.386H212.021C210.029 190.386 209.033 190.969 209.033 192.135C209.033 192.645 209.203 193.043 209.542 193.33C209.882 193.617 210.319 193.761 210.852 193.761ZM220.684 190.597L219.665 191.66V195H218.039V181.5H219.665V189.665L220.535 188.619L223.497 185.49H225.474L221.774 189.463L225.905 195H223.998L220.684 190.597ZM231.484 195.176C230.195 195.176 229.146 194.754 228.337 193.91C227.529 193.061 227.124 191.927 227.124 190.509V190.21C227.124 189.267 227.303 188.426 227.66 187.688C228.024 186.943 228.528 186.363 229.172 185.947C229.823 185.525 230.526 185.314 231.282 185.314C232.518 185.314 233.479 185.722 234.164 186.536C234.85 187.351 235.193 188.517 235.193 190.034V190.711H228.75C228.774 191.648 229.046 192.407 229.568 192.987C230.095 193.562 230.763 193.849 231.572 193.849C232.146 193.849 232.632 193.731 233.031 193.497C233.429 193.263 233.778 192.952 234.076 192.565L235.07 193.339C234.273 194.563 233.077 195.176 231.484 195.176ZM231.282 186.65C230.625 186.65 230.075 186.891 229.629 187.371C229.184 187.846 228.909 188.514 228.803 189.375H233.567V189.252C233.52 188.426 233.297 187.787 232.899 187.336C232.5 186.879 231.961 186.65 231.282 186.65ZM249.988 191.66H244.627L243.423 195H241.683L246.57 182.203H248.046L252.942 195H251.21L249.988 191.66ZM245.137 190.271H249.487L247.308 184.286L245.137 190.271ZM254.574 190.166C254.574 188.707 254.92 187.535 255.611 186.65C256.302 185.76 257.208 185.314 258.327 185.314C259.44 185.314 260.322 185.695 260.972 186.457V181.5H262.598V195H261.104L261.025 193.98C260.375 194.777 259.469 195.176 258.309 195.176C257.208 195.176 256.308 194.725 255.611 193.822C254.92 192.92 254.574 191.742 254.574 190.289V190.166ZM256.2 190.351C256.2 191.429 256.423 192.272 256.868 192.882C257.313 193.491 257.928 193.796 258.714 193.796C259.745 193.796 260.498 193.333 260.972 192.407V188.039C260.486 187.143 259.739 186.694 258.731 186.694C257.934 186.694 257.313 187.002 256.868 187.617C256.423 188.232 256.2 189.144 256.2 190.351ZM268.827 192.794L271.183 185.49H272.844L269.434 195H268.194L264.749 185.49H266.41L268.827 192.794ZM276.735 195H275.109V185.49H276.735V195ZM274.977 182.968C274.977 182.704 275.056 182.481 275.214 182.3C275.378 182.118 275.619 182.027 275.935 182.027C276.251 182.027 276.492 182.118 276.656 182.3C276.82 182.481 276.902 182.704 276.902 182.968C276.902 183.231 276.82 183.451 276.656 183.627C276.492 183.803 276.251 183.891 275.935 183.891C275.619 183.891 275.378 183.803 275.214 183.627C275.056 183.451 274.977 183.231 274.977 182.968ZM281.672 195H280.046V181.5H281.672V195ZM286.749 191.396C286.761 190.699 286.84 190.148 286.987 189.744C287.133 189.34 287.432 188.892 287.883 188.399L289.035 187.213C289.527 186.656 289.773 186.059 289.773 185.42C289.773 184.805 289.612 184.324 289.289 183.979C288.967 183.627 288.498 183.451 287.883 183.451C287.286 183.451 286.805 183.609 286.442 183.926C286.079 184.242 285.897 184.667 285.897 185.2H284.271C284.283 184.251 284.62 183.486 285.282 182.906C285.95 182.32 286.817 182.027 287.883 182.027C288.991 182.027 289.852 182.326 290.467 182.924C291.088 183.516 291.399 184.33 291.399 185.367C291.399 186.393 290.924 187.403 289.975 188.399L289.017 189.349C288.589 189.823 288.375 190.506 288.375 191.396H286.749ZM286.679 194.183C286.679 193.919 286.758 193.699 286.916 193.523C287.08 193.342 287.321 193.251 287.637 193.251C287.954 193.251 288.194 193.342 288.358 193.523C288.522 193.699 288.604 193.919 288.604 194.183C288.604 194.446 288.522 194.666 288.358 194.842C288.194 195.012 287.954 195.097 287.637 195.097C287.321 195.097 287.08 195.012 286.916 194.842C286.758 194.666 286.679 194.446 286.679 194.183Z" fill="#0B4A72"/>
</g>
<g clip-path="url(#clip3_1_124)">
<path fill-rule="evenodd" clip-rule="evenodd" d="M268.986 38.037C284.322 38.1898 299.439 39.8922 314.338 43.1443C331.284 46.8433 342.094 59.6263 339.658 73.087C336.926 88.1899 322.173 100.329 302.819 103.403C295.334 104.592 286.829 105.65 277.301 106.58C234.018 110.802 196.8 108.216 174.817 108.216C152.834 108.216 155.829 107.418 131.247 106.58C106.667 105.741 117.263 106.294 81.9707 105.05C69.0201 104.593 56.0708 104.115 43.1228 103.616C41.7549 103.564 40.3927 103.444 39.0448 103.256C20.6038 105.223 -4.12113 111.77 0.583857 107.682C3.98885 104.721 9.21484 98.8198 16.2608 89.9757C13.896 86.2675 12.794 82.1555 13.0588 78.0276L14.0218 62.5188C14.8058 49.8847 27.9458 39.7981 44.3198 39.2625C69.2257 38.4452 90.9997 38.037 109.643 38.037C147.95 38.037 144.703 40.3368 186.111 40.3368C227.518 40.3368 230.804 37.6565 268.986 38.037Z" fill="#FFF2CE"/>
<path d="M53.2959 62H51.6084V49.2031H53.2959V62ZM62.2319 59.4775C62.2319 59.0381 62.0649 58.6982 61.7309 58.458C61.4028 58.2119 60.8256 58.001 59.9995 57.8252C59.1791 57.6494 58.5258 57.4385 58.0395 57.1924C57.559 56.9463 57.2016 56.6533 56.9672 56.3135C56.7387 55.9736 56.6245 55.5693 56.6245 55.1006C56.6245 54.3213 56.9526 53.6621 57.6088 53.123C58.2709 52.584 59.1147 52.3145 60.1401 52.3145C61.2182 52.3145 62.0912 52.5928 62.7592 53.1494C63.433 53.7061 63.77 54.418 63.77 55.2852H62.1352C62.1352 54.8398 61.9448 54.4561 61.5639 54.1338C61.1889 53.8115 60.7143 53.6504 60.1401 53.6504C59.5483 53.6504 59.0854 53.7793 58.7514 54.0371C58.4174 54.2949 58.2504 54.6318 58.2504 55.0479C58.2504 55.4404 58.4057 55.7363 58.7162 55.9355C59.0268 56.1348 59.5864 56.3252 60.395 56.5068C61.2094 56.6885 61.8686 56.9053 62.3725 57.1572C62.8764 57.4092 63.2485 57.7139 63.4887 58.0713C63.7348 58.4229 63.8579 58.8535 63.8579 59.3633C63.8579 60.2129 63.518 60.8955 62.8383 61.4111C62.1586 61.9209 61.2768 62.1758 60.1928 62.1758C59.4311 62.1758 58.7573 62.041 58.1713 61.7715C57.5854 61.502 57.1254 61.127 56.7914 60.6465C56.4633 60.1602 56.2993 59.6357 56.2993 59.0732H57.9252C57.9545 59.6182 58.1713 60.0518 58.5756 60.374C58.9858 60.6904 59.5248 60.8486 60.1928 60.8486C60.808 60.8486 61.3002 60.7256 61.6694 60.4795C62.0444 60.2275 62.2319 59.8936 62.2319 59.4775ZM73.3275 62H71.7015V52.4902H73.3275V62ZM71.5696 49.9678C71.5696 49.7041 71.6488 49.4814 71.807 49.2998C71.971 49.1182 72.2113 49.0273 72.5277 49.0273C72.8441 49.0273 73.0843 49.1182 73.2484 49.2998C73.4124 49.4814 73.4945 49.7041 73.4945 49.9678C73.4945 50.2314 73.4124 50.4512 73.2484 50.627C73.0843 50.8027 72.8441 50.8906 72.5277 50.8906C72.2113 50.8906 71.971 50.8027 71.807 50.627C71.6488 50.4512 71.5696 50.2314 71.5696 49.9678ZM78.7039 50.1875V52.4902H80.4793V53.7471H78.7039V59.6445C78.7039 60.0254 78.783 60.3125 78.9412 60.5059C79.0994 60.6934 79.3689 60.7871 79.7498 60.7871C79.9373 60.7871 80.1951 60.752 80.5232 60.6816V62C80.0955 62.1172 79.6795 62.1758 79.2752 62.1758C78.5486 62.1758 78.0007 61.9561 77.6316 61.5166C77.2625 61.0771 77.0779 60.4531 77.0779 59.6445V53.7471H75.3464V52.4902H77.0779V50.1875H78.7039ZM87.5407 57.1572C87.5407 56.2256 87.7223 55.3877 88.0856 54.6436C88.4547 53.8994 88.9645 53.3252 89.6149 52.9209C90.2711 52.5166 91.0182 52.3145 91.8561 52.3145C93.151 52.3145 94.1969 52.7627 94.9938 53.6592C95.7965 54.5557 96.1979 55.748 96.1979 57.2363V57.3506C96.1979 58.2764 96.0192 59.1084 95.6618 59.8467C95.3102 60.5791 94.8034 61.1504 94.1413 61.5605C93.485 61.9707 92.7291 62.1758 91.8737 62.1758C90.5846 62.1758 89.5387 61.7275 88.736 60.8311C87.9391 59.9346 87.5407 58.748 87.5407 57.2715V57.1572ZM89.1754 57.3506C89.1754 58.4053 89.4186 59.252 89.9049 59.8906C90.3971 60.5293 91.0534 60.8486 91.8737 60.8486C92.6998 60.8486 93.3561 60.5264 93.8424 59.8818C94.3288 59.2314 94.5719 58.3232 94.5719 57.1572C94.5719 56.1143 94.3229 55.2705 93.8248 54.626C93.3327 53.9756 92.6764 53.6504 91.8561 53.6504C91.0534 53.6504 90.4059 53.9697 89.9137 54.6084C89.4215 55.2471 89.1754 56.1611 89.1754 57.3506ZM101.451 57.5967L100.432 58.6602V62H98.8057V48.5H100.432V56.665L101.302 55.6191L104.264 52.4902H106.241L102.541 56.4629L106.672 62H104.765L101.451 57.5967ZM114.351 62C114.257 61.8125 114.181 61.4785 114.123 60.998C113.367 61.7832 112.464 62.1758 111.416 62.1758C110.478 62.1758 109.708 61.9121 109.104 61.3848C108.506 60.8516 108.208 60.1777 108.208 59.3633C108.208 58.373 108.583 57.6055 109.333 57.0605C110.088 56.5098 111.149 56.2344 112.514 56.2344H114.096V55.4873C114.096 54.9189 113.926 54.4678 113.586 54.1338C113.247 53.7939 112.746 53.624 112.084 53.624C111.503 53.624 111.017 53.7705 110.625 54.0635C110.232 54.3564 110.036 54.7109 110.036 55.127H108.401C108.401 54.6523 108.568 54.1953 108.902 53.7559C109.242 53.3105 109.699 52.959 110.273 52.7012C110.853 52.4434 111.489 52.3145 112.18 52.3145C113.276 52.3145 114.134 52.5898 114.755 53.1406C115.376 53.6855 115.699 54.4385 115.722 55.3994V59.7764C115.722 60.6494 115.834 61.3438 116.056 61.8594V62H114.351ZM111.653 60.7607C112.163 60.7607 112.646 60.6289 113.103 60.3652C113.56 60.1016 113.891 59.7588 114.096 59.3369V57.3857H112.822C110.83 57.3857 109.834 57.9688 109.834 59.1348C109.834 59.6445 110.003 60.043 110.343 60.3301C110.683 60.6172 111.12 60.7607 111.653 60.7607ZM121.802 59.6182L124.017 52.4902H125.757L121.934 63.4678C121.342 65.0498 120.401 65.8408 119.112 65.8408L118.805 65.8145L118.198 65.7002V64.3818L118.638 64.417C119.188 64.417 119.616 64.3057 119.921 64.083C120.231 63.8604 120.486 63.4531 120.686 62.8613L121.046 61.8945L117.653 52.4902H119.429L121.802 59.6182ZM135.007 50.1875V52.4902H136.782V53.7471H135.007V59.6445C135.007 60.0254 135.086 60.3125 135.244 60.5059C135.402 60.6934 135.672 60.7871 136.053 60.7871C136.24 60.7871 136.498 60.752 136.826 60.6816V62C136.398 62.1172 135.982 62.1758 135.578 62.1758C134.851 62.1758 134.304 61.9561 133.934 61.5166C133.565 61.0771 133.381 60.4531 133.381 59.6445V53.7471H131.649V52.4902H133.381V50.1875H135.007ZM138.643 57.1572C138.643 56.2256 138.824 55.3877 139.188 54.6436C139.557 53.8994 140.067 53.3252 140.717 52.9209C141.373 52.5166 142.12 52.3145 142.958 52.3145C144.253 52.3145 145.299 52.7627 146.096 53.6592C146.899 54.5557 147.3 55.748 147.3 57.2363V57.3506C147.3 58.2764 147.121 59.1084 146.764 59.8467C146.412 60.5791 145.906 61.1504 145.243 61.5605C144.587 61.9707 143.831 62.1758 142.976 62.1758C141.687 62.1758 140.641 61.7275 139.838 60.8311C139.041 59.9346 138.643 58.748 138.643 57.2715V57.1572ZM140.278 57.3506C140.278 58.4053 140.521 59.252 141.007 59.8906C141.499 60.5293 142.156 60.8486 142.976 60.8486C143.802 60.8486 144.458 60.5264 144.945 59.8818C145.431 59.2314 145.674 58.3232 145.674 57.1572C145.674 56.1143 145.425 55.2705 144.927 54.626C144.435 53.9756 143.779 53.6504 142.958 53.6504C142.156 53.6504 141.508 53.9697 141.016 54.6084C140.524 55.2471 140.278 56.1611 140.278 57.3506ZM154.528 57.166C154.528 55.707 154.874 54.5352 155.566 53.6504C156.257 52.7598 157.162 52.3145 158.281 52.3145C159.395 52.3145 160.277 52.6953 160.927 53.457V48.5H162.553V62H161.059L160.98 60.9805C160.329 61.7773 159.424 62.1758 158.264 62.1758C157.162 62.1758 156.263 61.7246 155.566 60.8223C154.874 59.9199 154.528 58.7422 154.528 57.2891V57.166ZM156.154 57.3506C156.154 58.4287 156.377 59.2725 156.822 59.8818C157.268 60.4912 157.883 60.7959 158.668 60.7959C159.699 60.7959 160.452 60.333 160.927 59.4072V55.0391C160.441 54.1426 159.694 53.6943 158.686 53.6943C157.889 53.6943 157.268 54.002 156.822 54.6172C156.377 55.2324 156.154 56.1436 156.154 57.3506ZM170.241 53.9492C169.995 53.9082 169.728 53.8877 169.441 53.8877C168.375 53.8877 167.651 54.3418 167.27 55.25V62H165.644V52.4902H167.226L167.253 53.5889C167.786 52.7393 168.542 52.3145 169.52 52.3145C169.837 52.3145 170.077 52.3555 170.241 52.4375V53.9492ZM174.07 62H172.444V52.4902H174.07V62ZM172.313 49.9678C172.313 49.7041 172.392 49.4814 172.55 49.2998C172.714 49.1182 172.954 49.0273 173.271 49.0273C173.587 49.0273 173.827 49.1182 173.991 49.2998C174.155 49.4814 174.237 49.7041 174.237 49.9678C174.237 50.2314 174.155 50.4512 173.991 50.627C173.827 50.8027 173.587 50.8906 173.271 50.8906C172.954 50.8906 172.714 50.8027 172.55 50.627C172.392 50.4512 172.313 50.2314 172.313 49.9678ZM178.779 52.4902L178.832 53.6855C179.558 52.7715 180.507 52.3145 181.679 52.3145C183.689 52.3145 184.703 53.4482 184.72 55.7158V62H183.094V55.707C183.088 55.0215 182.93 54.5146 182.62 54.1865C182.315 53.8584 181.837 53.6943 181.187 53.6943C180.66 53.6943 180.197 53.835 179.798 54.1162C179.4 54.3975 179.089 54.7666 178.867 55.2236V62H177.241V52.4902H178.779ZM190.387 57.5967L189.367 58.6602V62H187.741V48.5H189.367V56.665L190.237 55.6191L193.199 52.4902H195.177L191.476 56.4629L195.607 62H193.7L190.387 57.5967ZM210.86 59.7588L212.688 52.4902H214.314L211.546 62H210.227L207.916 54.793L205.666 62H204.347L201.588 52.4902H203.205L205.077 59.6094L207.292 52.4902H208.601L210.86 59.7588ZM218.302 62H216.676V52.4902H218.302V62ZM216.544 49.9678C216.544 49.7041 216.623 49.4814 216.781 49.2998C216.946 49.1182 217.186 49.0273 217.502 49.0273C217.819 49.0273 218.059 49.1182 218.223 49.2998C218.387 49.4814 218.469 49.7041 218.469 49.9678C218.469 50.2314 218.387 50.4512 218.223 50.627C218.059 50.8027 217.819 50.8906 217.502 50.8906C217.186 50.8906 216.946 50.8027 216.781 50.627C216.623 50.4512 216.544 50.2314 216.544 49.9678ZM223.678 50.1875V52.4902H225.454V53.7471H223.678V59.6445C223.678 60.0254 223.758 60.3125 223.916 60.5059C224.074 60.6934 224.343 60.7871 224.724 60.7871C224.912 60.7871 225.17 60.752 225.498 60.6816V62C225.07 62.1172 224.654 62.1758 224.25 62.1758C223.523 62.1758 222.975 61.9561 222.606 61.5166C222.237 61.0771 222.052 60.4531 222.052 59.6445V53.7471H220.321V52.4902H222.052V50.1875H223.678ZM229.547 53.6416C230.268 52.7568 231.205 52.3145 232.359 52.3145C234.369 52.3145 235.383 53.4482 235.401 55.7158V62H233.775V55.707C233.769 55.0215 233.61 54.5146 233.3 54.1865C232.995 53.8584 232.518 53.6943 231.867 53.6943C231.34 53.6943 230.877 53.835 230.479 54.1162C230.08 54.3975 229.77 54.7666 229.547 55.2236V62H227.921V48.5H229.547V53.6416ZM53.4365 73.1875V75.4902H55.2119V76.7471H53.4365V82.6445C53.4365 83.0254 53.5156 83.3125 53.6738 83.5059C53.832 83.6934 54.1016 83.7871 54.4824 83.7871C54.6699 83.7871 54.9277 83.752 55.2559 83.6816V85C54.8281 85.1172 54.4121 85.1758 54.0078 85.1758C53.2812 85.1758 52.7334 84.9561 52.3643 84.5166C51.9951 84.0771 51.8105 83.4531 51.8105 82.6445V76.7471H50.0791V75.4902H51.8105V73.1875H53.4365ZM59.3051 76.6416C60.0258 75.7568 60.9633 75.3145 62.1176 75.3145C64.1274 75.3145 65.1411 76.4482 65.1586 78.7158V85H63.5327V78.707C63.5268 78.0215 63.3686 77.5146 63.058 77.1865C62.7534 76.8584 62.2758 76.6943 61.6254 76.6943C61.0981 76.6943 60.6352 76.835 60.2368 77.1162C59.8383 77.3975 59.5278 77.7666 59.3051 78.2236V85H57.6791V71.5H59.3051V76.6416ZM72.0995 85.1758C70.8104 85.1758 69.7616 84.7539 68.953 83.9102C68.1444 83.0605 67.7401 81.9268 67.7401 80.5088V80.21C67.7401 79.2666 67.9188 78.4258 68.2763 77.6875C68.6395 76.9434 69.1434 76.3633 69.788 75.9473C70.4384 75.5254 71.1415 75.3145 71.8973 75.3145C73.1337 75.3145 74.0946 75.7217 74.7802 76.5361C75.4657 77.3506 75.8085 78.5166 75.8085 80.0342V80.7109H69.3661C69.3895 81.6484 69.662 82.4072 70.1835 82.9873C70.7108 83.5615 71.3788 83.8486 72.1874 83.8486C72.7616 83.8486 73.2479 83.7314 73.6464 83.4971C74.0448 83.2627 74.3934 82.9521 74.6923 82.5654L75.6854 83.3389C74.8886 84.5635 73.6932 85.1758 72.0995 85.1758ZM71.8973 76.6504C71.2411 76.6504 70.6903 76.8906 70.245 77.3711C69.7997 77.8457 69.5243 78.5137 69.4188 79.375H74.1825V79.252C74.1356 78.4258 73.913 77.7871 73.5145 77.3359C73.1161 76.8789 72.577 76.6504 71.8973 76.6504ZM83.7952 82.4775C83.7952 82.0381 83.6282 81.6982 83.2943 81.458C82.9661 81.2119 82.389 81.001 81.5628 80.8252C80.7425 80.6494 80.0892 80.4385 79.6029 80.1924C79.1224 79.9463 78.765 79.6533 78.5306 79.3135C78.3021 78.9736 78.1878 78.5693 78.1878 78.1006C78.1878 77.3213 78.5159 76.6621 79.1722 76.123C79.8343 75.584 80.678 75.3145 81.7034 75.3145C82.7816 75.3145 83.6546 75.5928 84.3226 76.1494C84.9964 76.7061 85.3333 77.418 85.3333 78.2852H83.6986C83.6986 77.8398 83.5081 77.4561 83.1273 77.1338C82.7523 76.8115 82.2777 76.6504 81.7034 76.6504C81.1116 76.6504 80.6488 76.7793 80.3148 77.0371C79.9808 77.2949 79.8138 77.6318 79.8138 78.0479C79.8138 78.4404 79.9691 78.7363 80.2796 78.9355C80.5902 79.1348 81.1497 79.3252 81.9583 79.5068C82.7728 79.6885 83.432 79.9053 83.9359 80.1572C84.4398 80.4092 84.8118 80.7139 85.0521 81.0713C85.2982 81.4229 85.4212 81.8535 85.4212 82.3633C85.4212 83.2129 85.0814 83.8955 84.4017 84.4111C83.722 84.9209 82.8402 85.1758 81.7562 85.1758C80.9945 85.1758 80.3206 85.041 79.7347 84.7715C79.1488 84.502 78.6888 84.127 78.3548 83.6465C78.0267 83.1602 77.8626 82.6357 77.8626 82.0732H79.4886C79.5179 82.6182 79.7347 83.0518 80.139 83.374C80.5491 83.6904 81.0882 83.8486 81.7562 83.8486C82.3714 83.8486 82.8636 83.7256 83.2327 83.4795C83.6077 83.2275 83.7952 82.8936 83.7952 82.4775ZM92.0457 85.1758C90.7566 85.1758 89.7078 84.7539 88.8992 83.9102C88.0906 83.0605 87.6863 81.9268 87.6863 80.5088V80.21C87.6863 79.2666 87.865 78.4258 88.2224 77.6875C88.5857 76.9434 89.0896 76.3633 89.7341 75.9473C90.3845 75.5254 91.0877 75.3145 91.8435 75.3145C93.0798 75.3145 94.0408 75.7217 94.7263 76.5361C95.4119 77.3506 95.7547 78.5166 95.7547 80.0342V80.7109H89.3123C89.3357 81.6484 89.6082 82.4072 90.1297 82.9873C90.657 83.5615 91.325 83.8486 92.1336 83.8486C92.7078 83.8486 93.1941 83.7314 93.5925 83.4971C93.991 83.2627 94.3396 82.9521 94.6384 82.5654L95.6316 83.3389C94.8347 84.5635 93.6394 85.1758 92.0457 85.1758ZM91.8435 76.6504C91.1873 76.6504 90.6365 76.8906 90.1912 77.3711C89.7459 77.8457 89.4705 78.5137 89.365 79.375H94.1287V79.252C94.0818 78.4258 93.8591 77.7871 93.4607 77.3359C93.0623 76.8789 92.5232 76.6504 91.8435 76.6504ZM111.262 80.3506C111.262 81.7979 110.931 82.9639 110.269 83.8486C109.607 84.7334 108.711 85.1758 107.58 85.1758C106.425 85.1758 105.517 84.8096 104.855 84.0771V88.6562H103.229V75.4902H104.714L104.794 76.5449C105.456 75.7246 106.376 75.3145 107.553 75.3145C108.696 75.3145 109.598 75.7451 110.26 76.6064C110.928 77.4678 111.262 78.666 111.262 80.2012V80.3506ZM109.636 80.166C109.636 79.0938 109.408 78.2471 108.951 77.626C108.494 77.0049 107.867 76.6943 107.07 76.6943C106.086 76.6943 105.347 77.1309 104.855 78.0039V82.5479C105.341 83.415 106.086 83.8486 107.088 83.8486C107.867 83.8486 108.485 83.541 108.942 82.9258C109.405 82.3047 109.636 81.3848 109.636 80.166ZM115.663 85H114.037V75.4902H115.663V85ZM113.905 72.9678C113.905 72.7041 113.984 72.4814 114.143 72.2998C114.307 72.1182 114.547 72.0273 114.863 72.0273C115.18 72.0273 115.42 72.1182 115.584 72.2998C115.748 72.4814 115.83 72.7041 115.83 72.9678C115.83 73.2314 115.748 73.4512 115.584 73.627C115.42 73.8027 115.18 73.8906 114.863 73.8906C114.547 73.8906 114.307 73.8027 114.143 73.627C113.984 73.4512 113.905 73.2314 113.905 72.9678ZM120.6 85H118.974V71.5H120.6V85ZM125.537 85H123.911V71.5H125.537V85ZM134.245 82.4775C134.245 82.0381 134.078 81.6982 133.744 81.458C133.415 81.2119 132.838 81.001 132.012 80.8252C131.192 80.6494 130.538 80.4385 130.052 80.1924C129.572 79.9463 129.214 79.6533 128.98 79.3135C128.751 78.9736 128.637 78.5693 128.637 78.1006C128.637 77.3213 128.965 76.6621 129.621 76.123C130.284 75.584 131.127 75.3145 132.153 75.3145C133.231 75.3145 134.104 75.5928 134.772 76.1494C135.446 76.7061 135.783 77.418 135.783 78.2852H134.148C134.148 77.8398 133.957 77.4561 133.577 77.1338C133.202 76.8115 132.727 76.6504 132.153 76.6504C131.561 76.6504 131.098 76.7793 130.764 77.0371C130.43 77.2949 130.263 77.6318 130.263 78.0479C130.263 78.4404 130.418 78.7363 130.729 78.9355C131.039 79.1348 131.599 79.3252 132.408 79.5068C133.222 79.6885 133.881 79.9053 134.385 80.1572C134.889 80.4092 135.261 80.7139 135.501 81.0713C135.747 81.4229 135.871 81.8535 135.871 82.3633C135.871 83.2129 135.531 83.8955 134.851 84.4111C134.171 84.9209 133.289 85.1758 132.205 85.1758C131.444 85.1758 130.77 85.041 130.184 84.7715C129.598 84.502 129.138 84.127 128.804 83.6465C128.476 83.1602 128.312 82.6357 128.312 82.0732H129.938C129.967 82.6182 130.184 83.0518 130.588 83.374C130.998 83.6904 131.537 83.8486 132.205 83.8486C132.821 83.8486 133.313 83.7256 133.682 83.4795C134.057 83.2275 134.245 82.8936 134.245 82.4775ZM140.456 81.3965C140.468 80.6992 140.547 80.1484 140.693 79.7441C140.84 79.3398 141.139 78.8916 141.59 78.3994L142.741 77.2129C143.233 76.6562 143.479 76.0586 143.479 75.4199C143.479 74.8047 143.318 74.3242 142.996 73.9785C142.674 73.627 142.205 73.4512 141.59 73.4512C140.992 73.4512 140.512 73.6094 140.148 73.9258C139.785 74.2422 139.603 74.667 139.603 75.2002H137.977C137.989 74.251 138.326 73.4863 138.988 72.9062C139.656 72.3203 140.523 72.0273 141.59 72.0273C142.697 72.0273 143.558 72.3262 144.174 72.9238C144.795 73.5156 145.105 74.3301 145.105 75.3672C145.105 76.3926 144.631 77.4033 143.681 78.3994L142.723 79.3486C142.296 79.8232 142.082 80.5059 142.082 81.3965H140.456ZM140.386 84.1826C140.386 83.9189 140.465 83.6992 140.623 83.5234C140.787 83.3418 141.027 83.251 141.344 83.251C141.66 83.251 141.9 83.3418 142.064 83.5234C142.228 83.6992 142.31 83.9189 142.31 84.1826C142.31 84.4463 142.228 84.666 142.064 84.8418C141.9 85.0117 141.66 85.0967 141.344 85.0967C141.027 85.0967 140.787 85.0117 140.623 84.8418C140.465 84.666 140.386 84.4463 140.386 84.1826Z" fill="#0B4A72"/>
</g>
<defs>
<clipPath id="clip0_1_124">
<rect width="340" height="112" fill="white" transform="translate(150 348)"/>
</clipPath>
<clipPath id="clip1_1_124">
<rect width="340" height="112" fill="white" transform="translate(0 238)"/>
</clipPath>
<clipPath id="clip2_1_124">
<rect width="340" height="112" fill="white" transform="translate(150 128)"/>
</clipPath>
<clipPath id="clip3_1_124">
<rect width="340" height="112" fill="white" transform="translate(0 18)"/>
</clipPath>
</defs>
</svg>
