<svg width="89" height="31" viewBox="0 0 89 31" fill="none" xmlns="http://www.w3.org/2000/svg">
<path d="M88.9888 19.0356C88.9679 18.8862 88.7604 18.7545 88.6813 18.6198C88.6306 18.5325 88.5933 18.4363 88.5216 18.3609C88.3769 18.207 88.2485 18.0753 88.0948 18.0102C87.8904 17.9229 87.5829 18.0398 87.3576 18.0575C87.0785 18.0797 86.983 18.0531 86.6621 18.1345C86.383 18.2055 86.1159 18.2647 85.8532 18.318C85.398 18.4097 84.9533 18.4778 84.4757 18.5429C84.0877 18.5962 83.6997 18.6539 83.3101 18.7071C82.952 18.756 82.6833 18.753 82.3251 18.793C82.0386 18.824 81.661 18.8877 81.3745 18.9158C80.8984 18.9617 80.382 18.972 79.9373 18.9794C79.5537 18.9853 79.1687 18.9839 78.7851 18.9735C78.2494 18.9602 77.7121 18.9483 77.1778 18.9202C76.7047 18.8951 75.7138 18.8285 75.6929 18.8255C74.966 18.7249 74.2363 18.6272 73.5109 18.5162C73.0528 18.4467 73.1244 17.7379 72.9826 17.3561C72.7976 16.8559 72.5274 16.3869 72.1931 15.971C71.5156 15.1261 70.553 14.4824 69.471 14.293C69.3367 14.2693 69.2009 14.256 69.0695 14.2249C68.9263 14.1909 68.7889 14.1184 68.6457 14.1021C68.4069 14.0769 68.1651 14.0858 67.9263 14.0725C67.892 14.071 67.8577 14.0222 67.8263 13.9926C67.7025 13.8787 67.5861 13.7573 67.4547 13.6508C67.3144 13.5368 67.1518 13.448 67.0204 13.3267C66.8219 13.1432 66.1578 13.0352 65.9608 13.2098C65.737 13.4096 65.5325 13.6419 65.3609 13.889C65.1057 14.256 64.8908 14.6496 64.6475 15.027C64.4938 15.2652 64.3177 15.4886 64.158 15.7224C64.0177 15.9281 63.8894 16.1412 63.7521 16.3499C63.6043 16.5733 63.4222 16.7805 63.3073 17.0202C63.2193 17.2022 63.0999 17.3236 62.9432 17.436C62.8865 17.4774 62.8566 17.5588 62.8238 17.6254C62.7999 17.6743 62.4432 18.0042 62.3074 18.1448C62.1208 18.3372 61.9955 18.6006 61.7865 18.7574C61.5597 18.9276 61.4119 19.1407 61.2388 19.3479C61.0478 19.5772 60.3792 20.2505 60.1792 20.3896C60.0733 20.548 59.4778 21.1547 59.4106 21.2213C59.1151 21.5172 58.0495 22.6611 57.8212 22.9319C57.4063 23.4217 56.0273 24.7475 55.8393 24.9162C55.6885 25.0524 55.408 25.3158 55.2438 25.4342C54.9244 25.6665 53.4275 27.0604 52.6172 26.9406C52.3112 26.8947 52.068 26.6461 51.9396 26.3679C51.8127 26.0897 51.7859 25.776 51.7784 25.4697C51.7501 24.0876 52.6739 22.0647 53.2156 20.7877C53.7365 19.5639 54.4379 18.3934 55.1647 17.2821C56.0094 15.9903 56.9034 14.731 57.7958 13.4717C58.6182 12.3116 59.4763 11.3216 60.4016 10.2399C60.7314 9.85369 61.0911 9.31505 61.5328 9.04574C62.0209 8.74978 62.7715 8.85041 63.3387 8.85929C63.5118 8.86224 63.77 8.86372 63.9431 8.86964C64.6102 8.8874 65.2788 8.89776 65.9459 8.91996C66.1877 8.92735 66.4309 8.96583 66.6727 8.96139C67.2398 8.95251 67.8069 8.91552 68.3741 8.91108C69.0098 8.90664 69.6456 8.9244 70.2814 8.93179C71.1067 8.94067 70.7828 8.917 71.6081 8.91996C72.0588 8.92144 72.5095 8.89332 72.9602 8.90664C73.9512 8.93771 73.999 9.01466 74.981 8.94807C76.0764 8.87408 76.0421 9.06053 77.145 8.86372C77.5181 8.79714 77.8733 8.73498 78.0001 8.36652C78.1121 8.04393 77.9807 7.57337 77.7942 7.30553C77.53 6.92819 77.0704 6.7225 76.6122 6.66035C75.8287 6.55381 76.0854 6.63372 75.2869 6.57749C74.5318 6.52421 74.7183 6.4887 73.9617 6.44875C73.9199 6.44727 72.9632 6.43839 72.7558 6.43691C72.4558 6.43395 70.6754 6.41767 70.0859 6.41471C69.5098 6.41175 68.4084 6.50498 67.8592 6.51385C67.3443 6.52273 66.8354 6.47834 66.322 6.43395C65.7534 6.38512 65.1773 6.40583 64.6042 6.41175C64.3192 6.41471 64.0341 6.4517 63.6909 6.47834C63.7461 6.34812 63.7774 6.26377 63.8177 6.18387C63.8834 6.05513 63.955 5.92787 64.0267 5.80209C64.0401 5.77841 64.6415 5.00893 64.849 4.61383C64.9684 4.38595 65.4877 3.49069 65.6355 3.29684C65.8683 2.99201 65.4549 2.62651 65.3564 2.58507C65.1967 2.51848 65.046 2.27432 64.9311 2.20773C64.455 1.92806 64.455 1.92806 64.1625 1.74309C64.0058 1.64394 63.8162 1.59215 63.6371 1.53592C63.5565 1.51076 63.4372 1.48709 63.3775 1.52704C63.1402 1.68686 62.9073 1.85703 62.6984 2.05088C62.585 2.15594 62.5268 2.31724 62.4387 2.45042C62.1492 2.89287 61.6851 3.17994 61.4134 3.65347C61.1463 4.12107 60.7195 4.48657 60.4225 4.94826C60.133 5.39663 59.7927 5.8154 59.4569 6.23418C59.3136 6.41323 59.1569 6.58784 58.8704 6.57453C58.5704 6.55973 58.2659 6.58932 57.966 6.61596C57.5197 6.65591 57.075 6.71806 56.6288 6.75506C55.9915 6.80833 55.3722 6.98738 54.8065 7.28037C54.5782 7.39876 54.3424 7.53785 54.2081 7.75834C53.9887 8.1194 54.1021 8.57961 54.2215 8.98359C54.8692 9.173 55.5453 9.26178 56.2198 9.24698C56.8944 9.23219 57.3212 9.18335 56.8481 9.904C56.7959 9.98539 55.3423 12.3767 55.2244 12.5676C55.0453 12.8576 53.6514 14.7502 53.3663 15.1587C53.0932 15.5493 52.4411 16.2492 52.4276 16.264C52.2187 16.4875 52.0083 16.7109 51.7963 16.9329C51.6172 17.1193 51.4352 17.3014 51.2561 17.4863C51.2322 17.5204 49.0249 19.592 48.713 19.8865C48.5294 20.0596 48.2533 20.3438 48.0549 20.5006C47.8787 20.6397 47.7534 20.7758 47.5773 20.912L47.4415 21.0215C47.1206 21.2952 46.8818 21.4847 46.3953 21.9315C46.3147 22.0055 45.767 22.4509 45.4625 22.6907C44.9238 23.1139 44.3716 23.5193 43.8194 23.9248C43.5015 24.1586 43.1687 24.3732 42.8463 24.6025C42.7896 24.6425 42.7046 24.7194 42.6478 24.7535C42.3419 24.9355 42.0255 25.1042 41.7181 25.2832C41.1539 25.6132 40.5361 25.8514 39.8958 25.9935C39.6526 26.0468 39.3989 26.0749 39.1511 26.0719C37.4453 26.0542 38.1736 22.8978 38.6452 21.3974L38.8332 20.8454C39.4138 19.2916 40.2988 18.1581 41.4748 17.0158C41.6255 16.8693 42.5374 15.9193 42.8598 15.6055C43.0165 15.4531 45.0521 13.161 45.3804 12.8458C45.664 12.5735 45.9117 12.2627 46.1714 11.9668C46.3207 11.7951 48.3175 9.38016 48.6712 8.99247C49.0772 8.54854 49.4891 8.10904 49.8771 7.64884C50.3562 7.08209 50.8337 6.51385 51.2725 5.91751C51.7202 5.3108 52.2485 4.78697 52.6545 4.12699C52.9171 3.69934 53.2902 3.24801 53.5872 2.79372C54.1678 1.90586 53.8768 1.19113 53.7275 0.975088C53.5648 0.738325 53.3917 0.602186 53.1858 0.393539C53.0589 0.264799 52.8261 0.173054 52.6798 0.1331C51.5008 -0.188009 50.7024 0.155297 50.3069 0.292915C50.1606 0.343227 50.0278 0.446811 49.901 0.541516C49.7114 0.683573 49.0369 1.15562 48.907 1.26956C47.8638 2.17962 46.8982 3.029 45.9968 4.0752C45.5043 4.47178 45.0984 5.11696 44.685 5.5964C44.2179 6.13799 42.7314 8.19931 42.4046 8.65212C41.3838 10.0653 40.5197 11.5806 39.7033 13.1151C39.2854 13.8994 38.881 14.6896 38.4736 15.4798C38.1169 16.1679 37.7602 17.0394 37.2005 17.5884C36.8677 17.9155 36.4006 18.4645 35.9424 18.9291C35.7051 19.1703 35.5484 19.2976 35.3843 19.4544C35.3544 19.4825 35.0783 19.74 34.8321 19.9723C34.6082 20.1839 34.3038 20.4488 34.0471 20.6885C33.6501 21.06 33.2949 21.3855 33.2412 21.421C32.9501 21.6563 32.7337 21.8191 32.3621 22.1121C32.0786 22.3355 31.6846 22.6241 31.407 22.815C31.004 23.0917 30.6548 23.2722 30.3474 23.3817C29.8355 23.5623 29.4131 23.6185 29.1639 23.5637C28.6535 23.4601 28.7356 22.8179 28.7654 22.5634C28.8027 22.2393 28.8788 21.8724 28.9654 21.5424C29.0057 21.3885 29.049 21.242 29.0908 21.1132C29.1594 20.9046 29.246 20.6545 29.3579 20.3719C29.4131 20.2343 29.4668 20.0937 29.525 19.9472C29.6504 19.632 29.7937 19.2916 29.9996 18.9143C30.1399 18.6553 30.3429 18.0753 30.4623 17.8592C30.8876 17.0986 31.2756 16.5363 31.3055 16.483C31.4726 16.193 32.6382 14.6037 32.6755 14.5416C32.7979 14.3344 32.7188 14.1021 32.5591 14.0104C32.5009 13.9763 32.2203 13.7766 32.1935 13.7514C32.1457 13.7055 32.0741 13.6567 32.0189 13.6153C31.9771 13.5827 31.7413 13.4658 31.6622 13.4258C31.5667 13.377 31.1697 13.2187 31.1249 13.1994C30.8414 13.0781 30.328 13.485 30.2026 13.4051C30.131 13.3593 29.7653 12.9464 29.3728 12.7008C29.2281 12.6105 29.0042 12.4862 28.8117 12.3782C28.5042 12.2065 28.1729 12.097 28.0326 12.0467C27.8132 11.9683 27.6282 11.9017 27.4655 11.8484C26.9506 11.6797 26.4566 11.7064 25.9 11.8632C25.4896 11.9786 25.1956 12.2154 24.8225 12.4092C24.3031 12.6771 23.6509 13.1329 23.2435 13.4347C22.9942 13.6182 21.369 14.8287 21.2616 14.9293C20.9258 15.243 20.0676 15.8275 19.5453 16.301C19.499 16.3439 19.4527 16.3943 19.4065 16.4505C19.0811 16.6961 18.7558 16.9418 18.4334 17.1919C18.214 17.362 18.02 17.5633 17.8021 17.7334C17.5902 17.8992 17.4007 18.1108 17.1843 18.2706C16.6739 18.6494 16.2844 19.0578 15.7516 19.4855C15.7187 19.5121 15.6755 19.5299 15.6381 19.555C15.4964 19.6542 14.4084 20.5628 14.1726 20.7181C13.8905 20.9061 12.1623 22.3651 11.8235 22.6404C11.4833 22.9171 10.6535 23.5711 10.1535 23.9337C9.9013 24.1172 9.63267 24.277 9.37597 24.4545C8.95511 24.7446 8.5447 25.0494 8.11787 25.3291C7.64179 25.6413 7.14929 25.9299 6.66724 26.2332C6.54934 26.3072 6.45084 26.4108 6.33145 26.4804C6.0852 26.6239 5.83 26.7497 5.58077 26.8873C4.77337 27.3327 3.91523 27.6538 3.01978 27.8743C2.92278 27.898 2.82129 27.9024 2.72279 27.9157C2.43327 27.9527 2.14374 27.9942 1.85272 28.0223C1.69452 28.0371 1.53334 28.0282 1.37365 28.0311C1.28262 28.0326 1.19009 28.0311 1.09905 28.0371C0.85877 28.0548 0.597598 27.9202 0.379705 28.1199C0.16629 28.3153 0.0558518 28.5713 0.00809455 28.8435C-0.0157841 28.9841 0.0155566 29.1498 0.0707759 29.2845C0.187184 29.5686 0.430448 29.7196 0.721468 29.8024C0.82743 29.8335 0.94533 29.8542 1.0304 29.9164C1.24381 30.0717 1.45723 30.2153 1.72885 30.2375C1.83182 30.2464 3.02874 30.2064 3.52124 30.165C3.80479 30.1413 4.08985 30.1235 4.36743 30.0732C4.68383 30.014 4.99276 29.9252 5.30318 29.8409C5.39272 29.8172 5.4748 29.7625 5.56136 29.7255C6.13296 29.4784 6.51502 29.3171 7.08512 29.0655C7.1672 29.03 7.4224 28.8702 7.5015 28.8273C7.76267 28.6867 8.03131 28.5624 8.288 28.4144C8.75811 28.1451 9.22673 27.8743 9.68341 27.5828C10.2072 27.2498 10.7221 26.9021 11.2281 26.544C11.537 26.325 13.413 24.7165 13.6667 24.5123C13.7801 24.4205 13.9248 24.3643 14.0323 24.2666C14.3815 23.9529 14.7084 23.614 15.0665 23.3107C15.5411 22.9097 16.0396 22.5382 16.5216 22.1461C16.8127 21.9093 17.0858 21.6519 17.3768 21.4151C17.5007 21.3145 17.6275 21.2168 17.7529 21.1192C17.729 21.2242 17.7171 21.2834 17.7156 21.2849C17.6186 21.4521 17.5962 21.4995 17.3783 21.9138C17.1604 22.3296 17.0022 22.7513 16.8858 23.0088C16.7291 23.3521 16.6172 23.6525 16.4963 24.0387C16.4187 24.2859 16.3963 24.6454 16.3485 24.9C16.3172 25.0642 16.3276 25.6798 16.6754 26.2184C16.8112 26.43 17.0306 26.8103 17.2962 26.9953C17.4395 27.1359 18.1618 27.6168 19.3334 27.676C19.6124 27.6908 19.8482 27.6849 20.2721 27.6109C20.7795 27.5206 21.0034 27.3815 21.2974 27.2587C21.4063 27.2128 21.6839 27.0575 21.9809 26.905C22.3242 26.7275 22.5391 26.5425 22.651 26.4656C22.7211 26.4167 22.9539 26.2051 23.1733 26.0142C23.4166 25.8041 24.4493 24.8467 24.4807 24.8067C24.5105 24.7683 24.7553 24.4915 24.9926 24.2622C25.3209 23.944 25.8179 23.3551 25.9776 23.216C26.0358 23.1657 26.3179 22.8164 26.3059 22.8682C26.288 22.9496 26.279 23.3506 26.3208 23.7028C26.3477 23.9233 26.3701 24.2163 26.4581 24.4767C26.5447 24.7313 26.676 25.2743 27.2088 25.6606C27.3267 25.7449 27.4327 25.85 27.564 25.9343C27.7834 26.0749 28.0401 26.1933 28.3401 26.2806C28.3639 26.288 28.6535 26.3531 29.14 26.3353C29.3713 26.3265 29.6459 26.2998 29.9578 26.2391C30.231 26.1859 30.6667 26.0675 30.8563 25.992C30.907 25.9713 31.101 25.881 31.307 25.7937C31.6846 25.6354 32.095 25.4105 32.5397 25.1619C33.7008 24.5137 35.7544 22.6034 35.8081 22.5678C35.7723 22.7661 35.826 22.4184 35.7603 22.8209C35.7186 23.0769 35.6514 23.6658 35.6484 23.7487C35.641 23.9041 35.626 24.1423 35.6201 24.2962C35.5857 25.0228 35.8021 25.4741 36.029 26.0497C36.1155 26.2687 36.3006 26.5277 36.4543 26.7142C36.8289 27.1699 37.2453 27.5887 37.793 27.8447C37.984 27.935 39.0407 28.3375 39.366 28.3597C39.9376 28.3996 40.5152 28.4588 41.0957 28.2945C41.4061 28.2058 41.727 28.1584 42.021 28.0089C42.4628 27.784 42.9209 27.5887 43.3478 27.3416C43.8313 27.0619 44.297 26.7467 44.7581 26.4286C45.0954 26.1948 45.4193 25.9402 45.7356 25.6798C46.1147 25.3676 46.4818 25.0405 46.8535 24.7179C47.2325 24.3894 47.6176 24.0683 47.9877 23.7295C48.2951 23.4468 48.5832 23.1435 48.8831 22.8505C48.9219 22.8135 50.2979 21.4891 50.5323 21.2804C50.5218 21.4832 49.492 24.2444 49.4771 24.7535C49.4726 24.9414 49.3965 25.1264 49.3965 25.3128C49.3965 25.5733 49.4592 26.7941 49.6159 27.1196C49.6592 27.2099 49.9398 27.9601 50.4382 28.3182C50.6457 28.4662 50.8188 28.6822 51.0412 28.7843C52.8037 29.5938 54.2812 28.9131 54.2797 28.9264C54.4722 28.7962 54.6543 28.663 54.8468 28.5446C55.2781 28.2783 55.7497 28.0607 56.1407 27.7441C56.5571 27.4067 57.0317 27.1462 57.3914 26.7275C57.7511 26.3072 58.1973 25.9595 58.6002 25.5762C58.6958 25.4859 58.7689 25.3735 58.8599 25.2788C58.9674 25.1678 59.0838 25.0642 59.2271 24.9266C59.2256 24.9236 60.3389 23.8893 60.4329 23.5608C60.4478 23.509 60.5075 23.4616 60.5478 23.4291C60.8448 23.1834 61.5985 22.3488 61.9224 22.0751C61.9641 22.2216 61.8836 23.4853 62.288 24.3155C62.4223 24.5907 62.5253 24.897 62.7089 25.1604C62.8103 25.3039 62.873 25.48 62.9909 25.6058C63.1834 25.813 63.3849 26.0246 63.6207 26.177C64.0311 26.4419 64.449 26.7245 64.9042 26.8858C65.3534 27.0441 65.8474 27.1063 66.3309 27.1329C66.5951 27.1477 67.013 27.0279 67.2801 26.979C67.7965 26.8843 68.2517 26.7068 68.6845 26.4448C68.9501 26.2821 69.2516 26.1222 69.4531 25.9062C69.8307 25.4993 70.3605 25.2758 70.6798 24.8038C70.8336 24.5759 71.0962 24.422 71.2902 24.2178C71.6126 23.8804 71.929 23.5356 72.2319 23.1819C72.3498 23.0429 72.8931 22.2704 72.9782 22.0159C73.0871 21.6889 73.3498 21.4329 73.3886 21.0807C73.393 21.0466 73.4542 20.9949 73.493 20.9919C73.596 20.9815 73.702 20.9815 73.8049 20.9949C74.5422 21.0866 75.278 21.1843 76.0152 21.2745C76.248 21.3026 76.4823 21.313 76.7167 21.3278C76.9241 21.3396 77.1315 21.3441 77.339 21.3544C77.9718 21.387 78.6046 21.4284 79.2373 21.4521C79.5642 21.4639 79.891 21.4403 80.2178 21.4403C80.6596 21.4403 82.8967 21.3204 83.4206 21.2642C83.7534 21.2287 84.0892 21.2153 84.4205 21.1709C84.913 21.1044 85.404 21.0185 85.895 20.9401C86.1054 20.9061 86.3158 20.8735 86.5248 20.8395C87.5934 20.6663 88.4037 20.7463 88.9007 19.629C88.9932 19.4248 89.0171 19.2265 88.9888 19.0356ZM43.3821 11.0493C43.4955 10.8806 43.591 10.7001 43.7075 10.5329C44.0253 10.0786 44.3492 9.62729 44.6701 9.17596C44.9521 8.77938 45.2237 8.37392 45.5192 7.9877C46.0147 7.34252 46.4968 6.74322 46.9564 6.0788C47.4146 5.41735 48.0026 4.6967 48.6294 4.08704C48.8861 3.83696 49.5801 3.02013 49.9741 3.10743C50.6546 3.25837 49.9234 3.97753 49.7174 4.22466C49.4383 4.5576 49.1324 4.86835 48.8458 5.19538C48.7921 5.25605 48.3101 5.84352 48.3324 5.8376C48.1578 6.0714 48.022 6.27117 47.8668 6.45466C47.6877 6.66479 47.4877 6.85568 47.3027 7.06137C47.0117 7.38692 46.7251 7.71691 46.4401 8.04837C46.0684 8.47899 45.6998 8.91256 45.3327 9.34761C44.9476 9.80338 44.5671 10.2651 44.1746 10.7149C44.1746 10.7149 43.4985 11.4341 43.4791 11.4607C43.3552 11.6279 43.2985 11.662 43.1657 11.8233C42.9717 12.0585 42.7657 12.2849 42.5598 12.5114C42.5105 12.5646 42.4464 12.6046 42.3882 12.6519C42.3688 12.6357 42.3494 12.6179 42.33 12.6016C42.6822 12.0822 43.0344 11.5673 43.3821 11.0493ZM27.9864 15.8379C27.9446 16.0376 27.9714 16.1605 27.8282 16.4298C27.7804 16.5186 27.7998 16.5082 27.6357 16.816C27.4954 17.0764 27.3431 17.362 27.2267 17.581C27.1566 17.7127 27.0238 17.9169 26.9909 17.9806C26.9626 18.0338 26.8238 18.1522 26.5477 18.5384C26.3492 18.8166 26.094 19.0874 25.8597 19.4115C25.7373 19.5802 25.5612 19.8244 25.4448 19.9842C25.0717 20.4947 24.7359 20.8454 24.6553 20.9371C24.3941 21.2361 22.0331 23.9988 20.2019 24.894C19.5229 25.227 19.3468 25.3468 19.3199 25.1634C19.2931 24.3598 19.7856 23.4084 19.8661 23.2352C19.9109 23.1405 20.5079 21.6164 21.7794 19.8318C22.1078 19.3715 22.4003 18.8936 22.8211 18.4733C23.4509 17.843 23.9673 17.0468 24.715 16.3795C24.812 16.2936 25.0463 16.0998 25.1403 16.0184C25.397 15.7935 26.1268 15.1616 26.3492 15.0314C26.4775 14.9559 26.6014 14.8967 26.7193 14.8538C27.1342 14.6999 27.279 14.7088 27.4625 14.7414C27.5416 14.7562 27.8103 14.8375 27.9476 15.1661C28.0162 15.3303 28.0461 15.5493 27.9864 15.8379ZM70.9365 20.8691C70.85 21.0097 70.7858 21.1635 70.6888 21.2952C70.5634 21.4654 70.4276 21.6312 70.2769 21.7762C69.865 22.1713 69.4441 22.5575 69.0218 22.9422C68.9173 23.0369 67.7458 24.0935 67.2279 24.314C66.5518 24.601 64.846 25.2166 64.6117 24.1497C64.3475 22.9481 64.7027 21.3781 65.04 20.2239C65.2385 19.5462 65.4997 18.8847 65.8205 18.2543C65.9728 17.9554 66.016 17.726 66.3608 17.8296C66.5847 17.8962 66.8906 18.2617 67.0398 18.4349C67.298 18.7352 67.6368 18.9128 67.9502 19.1215C68.1845 19.2783 68.4666 19.3671 68.7293 19.4825C69.0964 19.6423 69.4546 19.8288 69.8351 19.9472C70.2411 20.073 70.6067 20.3186 71.0455 20.3423C71.0992 20.3452 71.1514 20.3837 71.2335 20.4192C71.1186 20.5909 71.0231 20.727 70.9365 20.8691ZM71.8424 18.0427C71.6813 18.2188 71.0768 18.0102 70.7649 17.9007C70.4485 17.7912 70.1247 17.7039 69.8098 17.5899C69.4784 17.47 68.5875 17.0365 68.477 16.9551C67.7711 16.4239 68.3696 16.264 68.977 16.264C69.4546 16.2655 70.1187 16.2818 70.556 16.5023C71.0291 16.742 71.4962 17.1282 71.7618 17.5914C71.8991 17.8326 71.9096 17.9702 71.8424 18.0427Z" fill="#0B4A72"/>
</svg>
